<svg data-name="グループ化 11" xmlns="http://www.w3.org/2000/svg" viewBox="0 0 20 20"><path data-name="長方形 5" stroke="#000" d="M.5.5h7.4v18.9H.5z"/><g data-name="グループ化 9"><path data-name="パス 5" d="M16 .1h-2v1h2v-1zm-3.4 0h-1v1.6h1V.1zm0 3.6h-1v2h1v-2zm0 4h-1v2h1v-2zm0 4h-1v2h1v-2zm0 4h-1v2h1v-2zm.6 3.3h-1.7v1h1.7v-1zm4 0h-2v1h2v-1zm2.8-.2h-1V20h1v-1.2zm0-4h-1v2h1v-2zm0-4h-1v2h1v-2zm0-4h-1v2h1v-2zm0-4h-1v2h1v-2zm0-2.7h-2v1h2v-1z"/></g><g data-name="グループ化 10"><path data-name="長方形 6" d="M13.5 9.6H18v1h-4.5z"/><path data-name="長方形 7" d="M16.238 7.786v4.5h-1v-4.5z"/></g></svg>