<?xml version="1.0" standalone="no"?>
<!DOCTYPE svg PUBLIC "-//W3C//DTD SVG 1.1//EN" "http://www.w3.org/Graphics/SVG/1.1/DTD/svg11.dtd" >
<svg xmlns="http://www.w3.org/2000/svg">
<metadata>Generated by IcoMoon</metadata>
<defs>
<font id="acms-fonts-20161209" horiz-adv-x="1024">
<font-face units-per-em="1024" ascent="960" descent="-64" />
<missing-glyph horiz-adv-x="1024" />
<glyph unicode="&#x20;" horiz-adv-x="512" d="" />
<glyph unicode="&#xe900;" glyph-name="add-below" d="M0 960v-1023.999h1024v1023.999h-1024zM950.857 9.143h-877.714v877.714h877.714v-877.714zM438.858 155.427h146.286v219.43h219.427v146.286h-219.427v219.429h-146.286v-219.429h-219.429v-146.286h219.429z" />
<glyph unicode="&#xe901;" glyph-name="add-duplicate" d="M219.429 959.999v-219.428h-219.429v-804.571h804.571v219.428h219.429v804.571h-804.571zM950.857 228.571h-658.286v658.286h658.286v-658.286z" />
<glyph unicode="&#xe902;" glyph-name="alias" d="M724.571 491.429l189.714-189.714v658.286h-658.286l176.063-176.063-145.777-182.223c-161.546-201.932-199.089-423.341-103.429-556 74.857-103.81 204.939-118.278 281.116-106.059 84.54 13.56 167.134 58.283 220.027 149.297-73.143-36.571-159.486-35.655-194.314 3.267-54.531 60.941-13.686 150.638 125.742 290.067l109.143 109.143z" />
<glyph unicode="&#xe903;" glyph-name="app" d="M969.143 228.571c-70.693 0-128 57.307-128 128s57.307 128 128 128c19.633 0 38.23-4.426 54.857-12.325v304.897h-304.897c7.899 16.627 12.325 35.225 12.325 54.857 0 70.693-57.307 128-128 128s-128-57.307-128-128c0-19.633 4.426-38.23 12.325-54.857h-304.897v-304.896c-16.627 7.899-35.225 12.325-54.857 12.325-70.693 0-128-57.307-128-128s57.307-128 128-128c19.633 0 38.23 4.426 54.857 12.325v-304.897h304.897c-7.899 16.627-12.325 35.225-12.325 54.857 0 70.693 57.307 128 128 128s128-57.307 128-128c0-19.633-4.426-38.23-12.325-54.857h304.897v304.897c-16.627-7.899-35.225-12.325-54.857-12.325z" />
<glyph unicode="&#xe904;" glyph-name="attention" d="M1015.809 64.29l-467.207 867.671c-20.131 37.386-53.072 37.386-73.203 0l-467.207-867.671c-20.131-37.386-1.861-67.974 40.601-67.974h926.417c42.461 0 60.731 30.589 40.601 67.974zM585.143 82.286h-146.286v146.286h146.286v-146.286zM585.143 301.714h-146.286l-36.571 329.143h219.429l-36.571-329.143z" />
<glyph unicode="&#xe905;" glyph-name="backup" d="M987.428 923.429h-255.999c-20.114 0-41.777-15.613-48.137-34.695l-13.441-40.324c-6.361-19.082-28.022-34.695-48.137-34.695h-365.714c-20.115 0-36.573-16.457-36.573-36.572v-182.857h-154.636c-35.636 0-64.791-29.156-64.791-64.792v-528.702c0-35.635 29.155-64.791 64.791-64.791h748.131c35.635 0 64.792 29.156 64.792 64.792v227.779h109.713c20.115 0 36.572 16.457 36.572 36.571v621.714c0 20.114-16.457 36.571-36.572 36.571zM841.143 9.143c0-20.114-16.458-36.571-36.572-36.571h-731.429c-20.114 0-36.571 16.457-36.571 36.571v512c0 20.114 16.457 36.571 36.572 36.571h365.714c20.114 0 41.776 15.613 48.137 34.695l13.441 40.324c6.361 19.082 28.023 34.695 48.137 34.695h255.999c20.114 0 36.572-16.457 36.572-36.571v-621.714zM475.427 448.001h-73.143v-146.287h-146.285v-73.143h146.285v-146.285h73.143v146.285h146.287v73.143h-146.287z" />
<glyph unicode="&#xe906;" glyph-name="blog-children" d="M914.286 230.741v217.259h-371.808v78.672c106.637 14.025 188.953 105.262 188.953 215.727 0 120.178-97.424 217.601-217.602 217.601s-217.601-97.423-217.601-217.601c0-109.199 80.437-199.607 185.292-215.214v-79.185h-371.806v-218.141c-63.258-17.466-109.714-75.421-109.714-144.234 0-82.636 66.989-149.625 149.625-149.625 82.638 0 149.626 66.99 149.626 149.625 0 71.214-49.752 130.802-116.393 145.916v143.316h298.663v-142.717c-68.018-14.078-119.145-74.324-119.145-146.515 0-82.636 66.989-149.625 149.627-149.625 82.635 0 149.625 66.99 149.625 149.625 0 72.192-51.128 132.439-119.149 146.515v142.717h298.665v-144.117c-64.957-16.319-113.054-75.097-113.054-145.115 0-82.636 66.989-149.625 149.626-149.625s149.626 66.99 149.626 149.625c0 70.019-48.098 128.797-113.054 145.115z" />
<glyph unicode="&#xe907;" glyph-name="blog" d="M1024 338.286l-146.284 512h-731.43l-146.286-512v-256c0-20.198 16.373-36.571 36.571-36.571h950.859c20.198 0 36.571 16.374 36.571 36.571v256h-0.002zM676.571 374.857c-10.099 0-18.286-8.187-18.286-18.286v-54.857h-292.571v54.857c0 10.099-8.186 18.286-18.286 18.286h-274.286l109.714 438.857h658.286l109.714-438.857h-274.286z" />
<glyph unicode="&#xe908;" glyph-name="briefcase" d="M658.286 374.857h-292.571v36.571h-365.714v-438.857h109.714v-36.571h73.143v36.571h658.286v-36.571h73.143v36.571h109.714v438.857h-365.714zM731.429 741.143v218.857h-438.857v-218.857h-292.571v-293.143h365.714v36.571h292.571v-36.571h365.714v293.143h-292.571zM658.286 740.571h-292.571v109.714h292.571v-109.714z" />
<glyph unicode="&#xe909;" glyph-name="cart" d="M512 45.714c0-60.594-49.121-109.714-109.714-109.714s-109.714 49.121-109.714 109.714c0 60.594 49.121 109.714 109.714 109.714s109.714-49.121 109.714-109.714zM877.714 45.714c0-60.594-49.121-109.714-109.714-109.714s-109.714 49.121-109.714 109.714c0 60.594 49.121 109.714 109.714 109.714s109.714-49.121 109.714-109.714zM950.857 813.714h-713.143l-36.571 146.286h-201.143v-73.143h128l164.571-658.286h585.143l146.286 585.143h-73.143zM512 557.714v182.857h146.286v-182.857h-146.286zM658.286 484.571v-182.857h-146.286v182.857h146.286zM731.429 740.571h182.857l-45.714-182.857h-137.143v182.857zM256 740.571h182.857v-182.857h-137.143l-45.714 182.857zM320 484.571h118.857v-182.857h-73.143l-45.714 182.857zM731.429 301.714v182.857h118.857l-45.714-182.857h-73.143z" />
<glyph unicode="&#xe90a;" glyph-name="category" d="M914.286 832.022c-0.012 70.682-57.314 127.978-128 127.978h-640v-1024h768v512c-60.594 0-109.714 49.121-109.714 109.714s49.12 109.714 109.714 109.714v164.549c0 0.007 0 0.015 0 0.022s0 0.015 0 0.022zM841.143 9.143h36.571v-36.571h-36.571v36.571zM219.429-27.429h-36.571v36.571h36.571v-36.571zM292.571-27.429h-36.571v36.571h36.571v-36.571zM365.714-27.429h-36.571v36.571h36.571v-36.571zM438.857-27.429h-36.571v36.571h36.571v-36.571zM512-27.429h-36.571v36.571h36.571v-36.571zM585.143-27.429h-36.571v36.571h36.571v-36.571zM658.286-27.429h-36.571v36.571h36.571v-36.571zM731.429-27.429h-36.571v36.571h36.571v-36.571zM804.571-27.429h-36.571v36.571h36.571v-36.571z" />
<glyph unicode="&#xe90b;" glyph-name="change-blog" d="M987.429 228.571h-310.859c-10.099 0-18.286-8.187-18.286-18.286v-54.857h-292.571v54.857c0 10.099-8.186 18.286-18.286 18.286h-310.857c-20.198 0-36.571-16.374-36.571-36.571v-219.429c0-20.198 16.373-36.571 36.571-36.571h950.859c20.197 0 36.571 16.374 36.571 36.571v219.429c0 20.198-16.374 36.571-36.571 36.571zM1024 521.143l-146.285 438.857h-731.43l-146.286-438.857v-219.429c0-20.198 16.373-36.571 36.571-36.571h950.858c20.198 0 36.571 16.374 36.571 36.571v219.429h-0.001zM676.571 557.714c-10.099 0-18.286-8.187-18.286-18.286v-54.857h-292.571v54.857c0 10.099-8.187 18.286-18.286 18.286h-274.286l109.714 365.714h658.286l109.714-365.714h-274.286z" />
<glyph unicode="&#xe90c;" glyph-name="checklist" d="M182.857 557.714l-182.857-182.857 512-365.714 512 877.714-585.143-585.143z" />
<glyph unicode="&#xe90d;" glyph-name="clip" d="M908.753 430.351c-0.203 0.203-0.409 0.402-0.613 0.605l0.004 0.004-467.868 467.869c-80.749 80.748-211.668 80.748-292.417 0s-80.749-211.669-0.001-292.418v0l467.869-467.869c3.885-3.885 7.966-7.454 12.206-10.716 2.171-1.986 4.583-3.714 7.186-5.134 48.161-31.846 113.644-26.563 156.058 15.85 48.449 48.45 48.45 127.001 0.001 175.451l-438.626 438.627-58.484-58.484 438.626-438.627c16.15-16.15 16.149-42.334-0.001-58.485-16.15-16.149-42.333-16.149-58.483 0v0l-467.869 467.869c-48.449 48.45-48.449 127.002 0 175.451 48.451 48.45 127.001 48.45 175.45 0l467.869-467.869c80.749-80.75 80.749-211.669 0-292.417s-211.669-80.749-292.418-0.001l-467.868 467.869-58.483-58.484 467.873-467.863c0.202-0.204 0.402-0.41 0.606-0.613 112.711-112.713 295.726-112.441 408.774 0.607 113.047 113.050 113.321 296.064 0.609 408.777z" />
<glyph unicode="&#xe90e;" glyph-name="close" d="M950.857 960h-877.714c-40.395 0-73.143-32.747-73.143-73.143v-877.714c0-40.395 32.747-73.143 73.143-73.143h877.714c40.395 0 73.143 32.747 73.143 73.143v877.714c0 40.395-32.747 73.143-73.143 73.143zM877.714 374.857h-731.429v146.286h731.429v-146.286z" />
<glyph unicode="&#xe90f;" glyph-name="comment" d="M1024 667.429c0 161.583-163.736 292.571-365.714 292.571-188.695 0-344.005-114.327-363.618-261.118 23.061 3.362 46.803 5.118 71.046 5.118 216.725 0 393.417-140.22 401.958-315.825 12.649 3.167 25.005 6.865 37.021 11.069 36.945-41.967 87.337-75.814 146.164-97.53-30.825 43.962-51.464 91.727-60.747 139.427 81.739 53.656 133.89 135.098 133.89 226.287zM365.714 667.429c-201.978 0-365.714-130.989-365.714-292.571 0-117.569 86.686-218.939 211.714-265.441-4.715-58.741-27.268-118.994-65.429-173.416 80.83 29.838 145.728 82.582 181.706 147.825 12.402-1.017 24.986-1.539 37.723-1.539 201.978 0 365.714 130.989 365.714 292.571s-163.736 292.571-365.714 292.571z" />
<glyph unicode="&#xe910;" glyph-name="config" d="M1017.81 368.199c4.069 26.005 6.19 52.655 6.19 79.801s-2.121 53.797-6.19 79.801l-112.429 4.741c-10.353 48.406-29.414 93.582-55.464 133.814l76.151 82.855c-31.506 43.237-69.62 81.351-112.857 112.858l-82.855-76.151c-40.231 26.050-85.407 45.111-133.814 55.464l-4.741 112.429c-26.004 4.070-52.654 6.19-79.801 6.19s-53.798-2.121-79.801-6.19l-4.741-112.429c-48.406-10.353-93.582-29.413-133.814-55.463l-82.855 76.151c-43.237-31.507-81.351-69.62-112.858-112.858l76.151-82.855c-26.050-40.231-45.111-85.408-55.464-133.814l-112.429-4.741c-4.070-26.004-6.19-52.654-6.19-79.801s2.121-53.797 6.19-79.801l112.429-4.741c10.352-48.406 29.414-93.583 55.464-133.814l-76.151-82.855c31.507-43.237 69.621-81.351 112.858-112.857l82.855 76.15c40.231-26.050 85.407-45.11 133.814-55.463l4.741-112.429c26.003-4.070 52.654-6.191 79.801-6.191s53.797 2.121 79.801 6.19l4.741 112.429c48.406 10.353 93.583 29.414 133.814 55.464l82.855-76.151c43.237 31.507 81.351 69.62 112.857 112.857l-76.151 82.855c26.050 40.231 45.111 85.407 55.464 133.814l112.429 4.741zM512 118.857c-181.78 0-329.143 147.362-329.143 329.143s147.363 329.143 329.143 329.143 329.143-147.362 329.143-329.143-147.363-329.143-329.143-329.143zM512 740.571c-161.583 0-292.571-130.989-292.571-292.571s130.988-292.571 292.571-292.571 292.571 130.989 292.571 292.571-130.988 292.571-292.571 292.571zM512 374.857c-40.396 0-73.143 32.747-73.143 73.143s32.747 73.143 73.143 73.143c40.395 0 73.143-32.747 73.143-73.143s-32.747-73.143-73.143-73.143z" />
<glyph unicode="&#xe911;" glyph-name="control-edit" d="M804.571 9.143h-731.429v731.428h534.913l73.242 73.143h-681.298v-877.714h877.714v680.57l-73.143-73.143zM877.714 960l-621.714-621.714 146.286-146.286 621.714 621.714c0 80.791-65.494 146.286-146.286 146.286zM219.429 301.714l-72.199-219.429 218.485 73.143z" />
<glyph unicode="&#xe912;" glyph-name="control-move" d="M295.429 813.714h-76v-329.142h-73.143l108.214-109.714 111.214 109.714h-70.285zM438.857 411.429c29.504 0 56.283-11.65 76-30.596v323.167h70.285l-111.214 109.714-108.214-109.714h73.143v-292.571zM329.143 301.715h-256v585.142h585.143v-182.857c28.102 0 53.731-10.57 73.142-27.946v283.946h-731.429v-731.43h357.101c-17.38 19.411-27.958 45.038-27.958 73.145v0zM950.857 374.857h-219.429v219.429c0 40.395-32.747 73.143-73.143 73.143s-73.143-32.747-73.143-73.143v-335.417l-90.89 90.89-0.13-0.131c-13.411 15.455-33.197 25.229-55.265 25.229-40.395 0-73.143-32.747-73.143-73.143 0-22.069 9.774-41.854 25.229-55.265l-0.13-0.13 194.33-194.329v-115.99h365.714v73.143c40.395 0 73.143 32.747 73.143 73.143v219.429c0 40.395-32.747 73.143-73.143 73.143z" />
<glyph unicode="&#xe913;" glyph-name="control-remove" d="M804.572 960c-95.54 0-176.818-61.061-206.941-146.286h-597.631v-877.714h877.714v597.629c85.226 30.123 146.286 111.401 146.286 206.942 0 121.187-98.242 219.429-219.429 219.429zM804.571 9.143h-731.429v731.428h512.001c0-121.187 98.241-219.429 219.428-219.429v-511.999zM914.286 667.429l-36.571-36.571-73.143 73.143-73.143-73.143-36.571 36.571 73.143 73.143-73.143 73.143 36.571 36.571 73.143-73.143 73.143 73.143 36.571-36.571-73.143-73.143 73.143-73.143z" />
<glyph unicode="&#xe914;" glyph-name="dashboard" d="M1023.673 356h0.328v36.571h-0.328c-2.807 79.941-23.938 155.218-59.326 221.762l0.202 0.116-4.456 7.718c-2.866 5.17-5.819 10.283-8.857 15.341l-4.973 8.613-0.23-0.132c-41.144 65.588-96.742 121.185-162.329 162.329l0.132 0.229-8.619 4.976c-5.054 3.035-10.163 5.987-15.33 8.851l-7.723 4.459-0.117-0.201c-66.544 35.387-141.822 56.519-221.762 59.325v0.328h-36.571v-0.329c-79.941-2.806-155.218-23.938-221.762-59.325l-0.117 0.201-7.725-4.459c-5.165-2.863-10.274-5.814-15.327-8.849l-8.621-4.977 0.133-0.229c-65.587-41.144-121.185-96.741-162.329-162.329l-0.229 0.132-4.972-8.612c-3.038-5.058-5.991-10.173-8.858-15.342l-4.456-7.718 0.201-0.116c-35.387-66.544-56.519-141.821-59.326-221.762h-0.327v-36.571h0.327c3.322-94.649 32.346-182.753 80.29-257.571 0.064 0.018 0.129 0.034 0.193 0.052-27.462-7.487-54.415-15.667-80.811-24.51v-76.621c152.848 53.865 327.082 84.365 512.001 84.365s359.151-30.5 511.999-84.364v76.621c-26.403 8.846-53.365 17.028-80.835 24.517 0.073-0.020 0.146-0.039 0.218-0.059 47.943 74.818 76.967 162.923 80.289 257.571zM237.767 132.642c-53.047 60.154-86.617 137.894-90.828 223.358h73.257c-0.374 6.047-0.566 12.144-0.566 18.285s0.192 12.239 0.566 18.286h-73.257c2.626 53.278 16.657 103.556 39.706 148.443l63.453-36.635c5.455 10.961 11.581 21.527 18.318 31.653l-63.453 36.634c28.124 43.439 65.215 80.53 108.654 108.654l36.635-63.453c10.125 6.737 20.693 12.863 31.653 18.318l-36.634 63.453c44.887 23.049 95.165 37.080 148.443 39.705v-73.256c6.047 0.373 12.145 0.565 18.286 0.565s12.238-0.192 18.286-0.565v73.256c53.278-2.625 103.556-16.657 148.443-39.706l-36.634-63.453c10.96-5.455 21.527-11.581 31.653-18.318l36.634 63.453c43.439-28.125 80.529-65.215 108.654-108.654l-63.453-36.634c6.737-10.126 12.863-20.693 18.318-31.653l63.453 36.634c23.049-44.887 37.081-95.165 39.706-148.443h-73.255c0.373-6.047 0.565-12.145 0.565-18.286s-0.192-12.238-0.565-18.285h73.256c-4.211-85.465-37.78-163.204-90.827-223.358-87.963 14.522-179.791 22.215-274.233 22.215s-186.27-7.693-274.233-22.214zM438.858 264.571c0-40.395 32.747-73.143 73.143-73.143s73.143 32.747 73.143 73.143-36.571 109.714-73.143 329.143c-36.571-219.429-73.143-288.747-73.143-329.143zM548.572 264.571c0-20.198-16.374-36.571-36.571-36.571s-36.571 16.374-36.571 36.571 16.373 36.571 36.571 36.571c20.198 0 36.571-16.374 36.571-36.571z" />
<glyph unicode="&#xe915;" glyph-name="delete" d="M950.857 960h-877.714c-40.395 0-73.143-32.747-73.143-73.143v-877.714c0-40.395 32.747-73.143 73.143-73.143h877.714c40.395 0 73.143 32.747 73.143 73.143v877.714c0 40.395-32.747 73.143-73.143 73.143zM822.319 241.121l-103.44-103.44-206.879 206.879-206.879-206.879-103.439 103.44 206.879 206.879-206.88 206.879 103.439 103.439 206.88-206.879 206.879 206.879 103.44-103.44-206.879-206.878 206.879-206.879z" />
<glyph unicode="&#xe916;" glyph-name="down" d="M811.466 448l-224.894-224.894v736.893h-149.143v-736.895l-224.896 224.896-105.46-105.46 404.968-404.885 404.885 404.885z" />
<glyph unicode="&#xe917;" glyph-name="entry" d="M109.714 960v-1024h549.051l255.521 255.521v768.479h-804.571zM621.714-27.189v255.521h255.521l-255.521-255.521z" />
<glyph unicode="&#xe918;" glyph-name="exit" d="M384.854 194.638c40.541-1.718 83.185-2.637 127.146-2.637s86.605 0.919 127.145 2.637c11.371 69.748 18.191 149.756 19.047 235.076h-292.384c0.855-85.32 7.676-165.327 19.046-235.076zM639.145 701.363c-40.541 1.718-83.185 2.637-127.145 2.637s-86.605-0.919-127.146-2.637c-11.37-69.749-18.191-149.757-19.046-235.078h292.384c-0.855 85.321-7.676 165.329-19.047 235.078zM391.411 737.91c38.803 1.741 79.158 2.662 120.589 2.662s81.786-0.921 120.589-2.662c-26.375 134.141-70.547 222.090-120.589 222.090s-94.213-87.95-120.589-222.090zM202.782 721.49c46.545 6.364 98.239 11.333 153.579 14.601 19.265 93.472 47.625 168.287 81.375 213.341-98.669-28.493-182.81-112.63-234.954-227.942zM146.518 466.286h182.728c0.916 83.917 8.114 163.063 20.229 233.348-60.508-3.364-115.447-8.548-161.911-15.122-24.475-65.671-39.077-139.698-41.046-218.226zM914.058 429.714c-1.811-75.402-14.779-146.954-36.729-211.686 58.989 10.67 98.453 23.948 109.673 38.538 1.114 2.762 2.207 5.534 3.274 8.319 0.002 0.086 0.010 0.171 0.010 0.257h0.090c19.657 51.393 31.267 106.763 33.297 164.571h-109.614zM877.479 466.286c-1.969 78.529-16.57 152.555-41.046 218.227-46.464 6.573-101.403 11.758-161.91 15.122 12.115-70.285 19.313-149.431 20.229-233.348h182.726zM109.94 466.286c1.811 75.403 14.779 146.955 36.73 211.687-58.987-10.669-98.45-23.947-109.671-38.537-1.114-2.762-2.207-5.536-3.275-8.322-0.002-0.086-0.010-0.171-0.010-0.257 0-0.001 0-0.001 0-0.001h-0.091c-19.655-51.393-31.265-106.763-33.295-164.572h109.613zM109.94 429.714h-109.613c2.030-57.809 13.64-113.179 33.296-164.571h0.091c0-0.086 0.008-0.171 0.010-0.258 1.067-2.785 2.159-5.557 3.274-8.318 11.22-14.59 50.683-27.869 109.673-38.538-21.95 64.732-34.919 136.283-36.73 211.686zM586.263 949.433c33.75-45.053 62.109-119.869 81.374-213.341 55.341-3.269 107.035-8.237 153.579-14.601-52.145 115.312-136.286 199.45-234.953 227.942zM437.737-53.433c-33.75 45.053-62.109 119.869-81.375 213.34-55.341 3.269-107.034 8.237-153.579 14.601 52.146-115.311 136.286-199.449 234.954-227.941zM160.537 180.902c-37.053 6.19-69.95 13.341-97.755 21.259 52.971-96.587 136.182-174.231 236.895-220.19-57.825 49.093-105.846 117.641-139.139 198.931zM160.537 715.096c33.294 81.291 81.315 149.839 139.14 198.933-100.713-45.959-183.925-123.603-236.895-220.192 27.805 7.919 60.703 15.069 97.755 21.259zM349.475 196.368c-12.115 70.285-19.313 149.431-20.229 233.346h-182.728c1.969-78.527 16.57-152.554 41.046-218.225 46.464-6.573 101.403-11.758 161.911-15.122zM863.462 715.097c37.053-6.19 69.951-13.341 97.757-21.259-52.971 96.588-136.182 174.232-236.896 220.191 57.825-49.093 105.846-117.642 139.139-198.933zM863.462 180.902c-33.293-81.29-81.315-149.838-139.139-198.931 100.713 45.959 183.925 123.602 236.895 220.19-27.805-7.918-60.704-15.069-97.756-21.259zM632.589 158.089c-38.804-1.741-79.158-2.662-120.589-2.662s-81.785 0.921-120.589 2.662c26.376-134.14 70.547-222.089 120.589-222.089s94.214 87.949 120.589 222.089zM990.286 630.857c0 0 0 0.001 0 0.001 0 0.086-0.008 0.17-0.010 0.256-1.067 2.786-2.161 5.56-3.275 8.323-11.222 14.589-50.685 27.867-109.672 38.537 21.951-64.733 34.919-136.285 36.73-211.687h109.614c-2.030 57.809-13.64 113.179-33.297 164.571h-0.090zM821.215 174.508c-46.544-6.364-98.238-11.332-153.578-14.601-19.265-93.471-47.624-168.287-81.374-213.34 98.667 28.493 182.808 112.63 234.953 227.941zM877.479 429.714h-182.726c-0.916-83.916-8.114-163.062-20.229-233.346 60.507 3.364 115.446 8.548 161.91 15.122 24.475 65.67 39.077 139.697 41.045 218.225z" />
<glyph unicode="&#xe919;" glyph-name="flag" d="M365.714 886.857c0 40.395-32.747 73.143-73.143 73.143s-73.143-32.747-73.143-73.143c0-20.873 8.745-39.703 22.769-53.030l-224.018-897.827h73.25l220.046 880.186c31.232 8.333 54.239 36.813 54.239 70.671zM859.429 740.571c-90.89 0-164.596 74-164.596 74s-74.301 72.286-164.547 72.286c-90.89 0-164.571-32.747-164.571-73.143v0l-142.244-568.977c16.558 32.617 82.139 56.977 160.53 56.977 90.89 0 164.571-73.143 164.571-73.143s73.683-73.143 164.571-73.143c90.89 0 164.571 32.747 164.571 73.143v0.001l141.466 567.52c-17.746-31.882-82.533-55.521-159.751-55.521z" />
<glyph unicode="&#xe91a;" glyph-name="form" d="M36.571 777.143l877.714-402.286 109.714 292.571zM0 742.819l438.857-623.962 438.857 219.429zM877.714 118.857l36.571 182.857-219.429-109.714z" />
<glyph unicode="&#xe91b;" glyph-name="graph" d="M914.286 960c-60.594 0-109.714-49.121-109.714-109.714 0-26.146 9.151-50.151 24.418-69l-139.083-301.347c-10.013 3.009-20.626 4.633-31.62 4.633-29.217 0-55.763-11.423-75.425-30.043l-107.556 61.461c0.079 1.709 0.124 3.426 0.124 5.154 0 60.594-49.121 109.714-109.714 109.714s-109.714-49.121-109.714-109.714c0-23.319 7.281-44.934 19.685-62.709l-163.176-303.041c-0.929 0.023-1.86 0.035-2.794 0.035-60.594 0-109.714-49.121-109.714-109.714s49.121-109.714 109.714-109.714 109.714 49.121 109.714 109.714c0 26.146-9.151 50.15-24.417 68.999l139.085 301.349c10.012-3.009 20.625-4.633 31.618-4.633 29.217 0 55.763 11.423 75.425 30.042l107.557-61.461c-0.079-1.708-0.124-3.426-0.124-5.154 0-60.594 49.121-109.714 109.714-109.714s109.714 49.121 109.714 109.714c0 23.319-7.281 44.934-19.684 62.709l163.176 303.041c0.929-0.023 1.86-0.035 2.794-0.035 60.594 0 109.714 49.121 109.714 109.714s-49.121 109.715-109.715 109.715z" />
<glyph unicode="&#xe91c;" glyph-name="import" d="M877.714 374.857v-292.571h-731.429v292.571h-146.286v-365.714c0-40.395 32.747-73.143 73.143-73.143h877.714c40.395 0 73.143 32.747 73.143 73.143v365.714h-146.286zM804.571 448h-146.286v512h-296.571v-512h-142.286l292.571-292.571z" />
<glyph unicode="&#xe91d;" glyph-name="left2" d="M512.001 149.361l-224.894 224.894 736.894-0.001v149.143l-736.895 0.001 224.896 224.896-105.46 105.46-404.885-404.968 404.885-404.885z" />
<glyph unicode="&#xe91e;" glyph-name="lock" d="M877.714 448h-109.714v254c0 142.49-115.51 258-258 258s-258-115.51-258-258v-254h-105.714c-40.395 0-73.143-32.747-73.143-73.143v-365.714c0-40.395 32.747-73.143 73.143-73.143h731.429c40.395 0 73.143 32.747 73.143 73.143v365.714c0 40.395-32.747 73.143-73.143 73.143zM365.714 448v256c0 80.791 65.494 146.286 146.286 146.286s146.286-65.494 146.286-146.286v0-256h-292.571z" />
<glyph unicode="&#xe91f;" glyph-name="logo" d="M511.92 960c-282.758 0-511.92-229.254-511.92-511.95 0-282.846 229.162-512.050 511.92-512.050 282.739 0 512.080 229.203 512.080 512.050 0 282.697-229.341 511.95-512.080 511.95zM697.396 275.609c-65.351-81.566-151.182-97.617-219.778-93.335-90.092 5.539-186.001 86.245-189.925 170.483-2.898 66.565 30.545 159.732 157.333 171.738 31.92 3.006 67.923-6.487 74.399-40.774 6.321-34.137-25.59-53.076-43.004-54.352-60.398-4.697-83.774-36.353-77.119-76.613 6.486-38.558 51.191-56.764 92.318-57.843 38.555-1.136 99.991 16.545 130.873 63.363 58.875 89.597 26.789 167.523-6.655 205.065-47.099 52.74-112.282 84.129-222.34 32.93-26.116-12.203-52.566-10.224-73.037 6.497-11.608 9.554-19.627 31.913-14.674 50.575 4.263 16.14 12.965 31.508 40.434 46.599 139.249 76.791 273.027 24.733 343.68-52.571 77.803-85.058 114.142-238.975 7.496-371.761z" />
<glyph unicode="&#xe920;" glyph-name="mail" d="M0 813.714v-144.571l512-294.286 512 292.571v146.286zM1024 152.571v514.857l-319.419-228.156zM512 301.714l-149.607 107.363-362.393-256.506v-70.286h1024v70.286l-362.041 256.257zM0 669.143v-516.571l319.818 287.059z" />
<glyph unicode="&#xe921;" glyph-name="media" d="M219.429 923.429v-73.143h731.429v-658.286h73.143v731.429zM109.714 740.571h731.429v-658.286h73.143v731.429h-804.571zM0-27.429h804.571v731.429h-804.571v-731.429zM73.143 630.857h658.286v-585.143h-658.286v585.143zM292.571 228.571l-182.857 119.689v-265.974h585.143v265.974l-109.714 99.74zM329.143 448c0-40.396-32.747-73.143-73.143-73.143s-73.143 32.747-73.143 73.143c0 40.396 32.747 73.143 73.143 73.143s73.143-32.747 73.143-73.143z" />
<glyph unicode="&#xe922;" glyph-name="mobile" d="M804.571 960h-585.143c-40.395 0-73.143-32.747-73.143-73.143v-877.714c0-40.395 32.747-73.143 73.143-73.143h585.143c40.395 0 73.143 32.747 73.143 73.143v877.714c0 40.395-32.747 73.143-73.143 73.143zM548.571 9.143h-73.143c-20.198 0-36.571 16.373-36.571 36.571s16.374 36.571 36.571 36.571h73.143c20.198 0 36.571-16.373 36.571-36.571s-16.374-36.571-36.571-36.571zM804.571 192c0-20.198-16.374-36.571-36.571-36.571h-512c-20.198 0-36.571 16.373-36.571 36.571v658.286c0 20.198 16.374 36.571 36.571 36.571h512c20.198 0 36.571-16.373 36.571-36.571v-658.286z" />
<glyph unicode="&#xe923;" glyph-name="module" d="M1024.571 669.333l-512 291.81-511.334-292.19-0.666 0.381v-476.19l510.286-256 513.714 256v476.19zM329.714 595.429c0-40.395-65.494-73.143-146.286-73.143s-146.286 32.747-146.286 73.143v73.143c0-40.395 65.494-73.143 146.286-73.143s146.286 32.747 146.286 73.143v-73.143zM658.857 412.571c0-40.395-65.494-73.143-146.286-73.143s-146.286 32.747-146.286 73.143v73.143c0-40.395 65.494-73.143 146.286-73.143s146.286 32.747 146.286 73.143v-73.143zM658.857 778.286c0-40.395-65.494-73.143-146.286-73.143s-146.286 32.747-146.286 73.143v73.143c0-40.395 65.494-73.143 146.286-73.143s146.286 32.747 146.286 73.143v-73.143zM988 595.429c0-40.395-65.494-73.143-146.286-73.143s-146.286 32.747-146.286 73.143v73.143c0-40.395 65.494-73.143 146.286-73.143s146.286 32.747 146.286 73.143v-73.143z" />
<glyph unicode="&#xe924;" glyph-name="money" d="M972.035 431.137l51.965 90.006-760.123 438.857-127.929-221.579 856.899-229.606-8.873-33.118zM0 327.151l-1.069-3.988 1.069-0.286v-277.163h370.323c16.239-63.094 73.513-109.714 141.677-109.714s125.438 46.62 141.677 109.714h224.037v402.286h-877.714v-120.849zM694.857 338.286c60.594 0 109.714-49.121 109.714-109.714s-49.121-109.714-109.714-109.714-109.714 49.121-109.714 109.714 49.121 109.714 109.714 109.714zM512 192c60.594 0 109.714-49.121 109.714-109.714s-49.121-109.714-109.714-109.714-109.714 49.121-109.714 109.714 49.121 109.714 109.714 109.714zM256 411.429c60.594 0 109.714-49.121 109.714-109.714s-49.121-109.714-109.714-109.714-109.714 49.121-109.714 109.714 49.121 109.714 109.714 109.714zM42.189 484.602h872.097v-136.519l36.571 136.488-847.807 227.17z" />
<glyph unicode="&#xe925;" glyph-name="open" d="M950.857 960h-877.714c-40.395 0-73.143-32.747-73.143-73.143v-877.714c0-40.395 32.747-73.143 73.143-73.143h877.714c40.395 0 73.143 32.747 73.143 73.143v877.714c0 40.395-32.747 73.143-73.143 73.143zM877.714 374.857h-292.571v-292.571h-146.286v292.571h-292.571v146.286h292.571v292.571h146.286v-292.571h292.571v-146.286z" />
<glyph unicode="&#xe926;" glyph-name="pin" d="M773.097 577.922c-48.681 48.679-119.963 64.365-192.238 49.461l-273.114 223.457c17.191 41.011 18.358 76.322-0.61 95.291-35.993 35.993-130.819-0.478-211.799-81.462-80.987-80.982-117.458-175.808-81.465-211.801 18.969-18.968 54.279-17.802 95.292-0.609l223.455-273.114c-14.903-72.275 0.781-143.56 49.46-192.239 0.042-0.042 0.085-0.083 0.125-0.125l-0.041 0.041c51.97-51.817 166.144-23.682 267.213 61.478l342.041-312.299h32.584v32.585l-312.298 342.041c85.205 101.124 113.325 215.366 61.395 267.297z" />
<glyph unicode="&#xe927;" glyph-name="publish" d="M794.693 877.265l82.735 82.735h-328.857v-328.857l103.654 103.654c88.986-57.686 149.961-168.567 152.545-296.608-0.758-43.488-6.539-85.267-16.578-124.283-40.203-156.246-148.679-268.191-276.191-268.191v-73.143c281.665 0 510 221.043 510 493.714 0 171.442-90.273 322.467-227.307 410.979zM219.23 457.812c0.758 43.488 6.539 85.267 16.578 124.283 40.203 156.246 148.679 268.191 276.191 268.191v73.143c-281.665 0-510-221.043-510-493.714 0-171.442 90.273-322.467 227.306-410.979l-82.735-82.735h328.857v328.857l-103.654-103.654c-88.986 57.687-149.961 168.568-152.545 296.609z" />
<glyph unicode="&#xe928;" glyph-name="right2" d="M511.999 748.294l224.894-224.894h-736.893v-149.143h736.895l-224.896-224.897 105.46-105.459 404.885 404.967-404.885 404.885z" />
<glyph unicode="&#xe929;" glyph-name="rule" d="M329.143 210.286c0 95.361 42.941 180.691 110.539 237.714h-147.111l-36.57 109.714h219.427l182.857 402.286h-256l-182.857-402.286 24.914-74.741c-80.595-47.773-134.629-135.634-134.629-236.117 0-145.339 113.042-264.273 256-273.682v-0.603l90.354-12.908c-76.969 56.583-126.926 147.767-126.926 250.622zM658.286 483.968v0.603l-34.342 4.906 180.627 397.38-113.628 73.143-178.943-402.286 30.346-91.038c-103.267-39.355-176.632-139.305-176.632-256.391 0-151.484 122.801-274.286 274.286-274.286s274.286 122.802 274.286 274.286c0 145.339-113.042 264.273-256 273.682zM640 82.286c-70.693 0-128 57.307-128 128s57.307 128 128 128c70.692 0 128-57.307 128-128s-57.308-128-128-128z" />
<glyph unicode="&#xe92a;" glyph-name="schedule" d="M950.857 886.857h-146.286v73.143h-146.286v-73.143h-292.571v73.143h-146.286v-73.143h-146.286c-40.395 0-73.143-32.747-73.143-73.143v-109.581h1024v109.581c0 40.395-32.747 73.143-73.143 73.143zM0 667.429v-658.286c0-40.395 32.747-73.143 73.143-73.143h877.714c40.395 0 73.143 32.747 73.143 73.143v658.286h-1024zM219.429 82.286h-146.286v146.285h146.286v-146.285zM219.429 265.143h-146.286v146.285h146.286v-146.285zM219.429 448h-146.286v146.285h146.286v-146.285zM402.286 82.286h-146.286v146.285h146.286v-146.285zM402.286 265.143h-146.286v146.285h146.286v-146.285zM402.286 448h-146.286v146.285h146.286v-146.285zM585.143 82.286h-146.286v146.285h146.286v-146.285zM585.143 265.143h-146.286v146.285h146.286v-146.285zM585.143 448h-146.286v146.285h146.286v-146.285zM768 82.286h-146.286v146.285h146.286v-146.285zM768 265.143h-146.286v146.285h146.286v-146.285zM768 448h-146.286v146.285h146.286v-146.285zM950.857 82.286h-146.286v146.285h146.286v-146.285zM950.857 265.143h-146.286v146.285h146.286v-146.285zM950.857 448h-146.286v146.285h146.286v-146.285z" />
<glyph unicode="&#xe92b;" glyph-name="shortcut" d="M989.321 583.898l-317.038 35.331-28.709 63.409c-0.001 0.002-0.001 0.003-0.002 0.004l-102.863 227.194c-15.79 34.871-41.627 34.871-57.418 0l-102.863-227.194c-0.001-0.001-0.001-0.002-0.002-0.004l-28.71-63.41-317.037-35.331c-38.047-4.239-46.034-28.812-17.75-54.606l184.29-168.037c0.002-0.001 0.003-0.003 0.005-0.005l51.432-46.896-64.368-312.439c-7.726-37.498 13.178-52.686 46.454-33.751l216.755 123.341c0 0 0 0 0.001 0l60.501 34.426 277.257-157.767c33.272-18.933 54.175-3.75 46.457 33.739l-50.325 244.273c-0.001 0.003-0.002 0.007-0.002 0.011l-14.043 68.167 51.435 46.899c0.001 0.001 0.001 0.001 0.002 0.002l184.287 168.035c28.287 25.795 20.302 50.369-17.747 54.609z" />
<glyph unicode="&#xe92c;" glyph-name="sort" d="M0 813.714h1024v-146.286h-1024v146.286zM0 521.143h1024v-146.286h-1024v146.286zM0 234.857h1024v-146.286h-1024v146.286z" />
<glyph unicode="&#xe92d;" glyph-name="sort2" d="M288.571 960l-288.571-292.571h219.429v-731.429h149.143v731.429h216.571zM804.571 228.571v731.428h-149.143v-731.428h-216.571l296.571-292.571 288.571 292.571z" />
<glyph unicode="&#xe92e;" glyph-name="tag" d="M365.715 960h-292.573c-40.381 0-73.118-32.723-73.142-73.099v-0.088l0.001-292.527 658.286-658.286 365.714 365.714-658.285 658.286zM201.144 704c-30.297 0-54.857 24.561-54.857 54.857s24.56 54.857 54.857 54.857c30.297 0 54.857-24.561 54.857-54.857s-24.56-54.857-54.857-54.857z" />
<glyph unicode="&#xe92f;" glyph-name="time" d="M512 960c-282.77 0-512-229.23-512-512s229.23-512 512-512 512 229.23 512 512-229.23 512-512 512zM512 82.286c-201.979 0-365.714 163.735-365.714 365.714s163.735 365.714 365.714 365.714c201.978 0 365.714-163.735 365.714-365.714s-163.736-365.714-365.714-365.714zM585.143 740.571h-146.286v-365.714h292.571v146.286h-146.286z" />
<glyph unicode="&#xe930;" glyph-name="tooltip" d="M512 960c-282.771 0-512-229.23-512-512s229.229-512 512-512c282.77 0 512 229.23 512 512s-229.23 512-512 512zM587.349 167.919c-4.14-10.045-9.906-18.762-17.286-26.143-7.393-7.392-16.11-13.158-26.155-17.286s-20.677-6.204-31.908-6.204c-11.232 0-21.876 2.076-31.921 6.204-10.043 4.129-18.762 9.894-26.142 17.286-7.393 7.381-13.158 16.098-17.287 26.143-4.139 10.044-6.203 20.688-6.203 31.92s2.064 21.865 6.203 31.909c4.129 10.045 9.894 18.762 17.287 26.154 7.38 7.381 16.098 13.146 26.142 17.286 10.045 4.129 20.689 6.204 31.921 6.204s21.864-2.076 31.909-6.204c10.044-4.14 18.762-9.906 26.155-17.286 7.38-7.392 13.146-16.11 17.286-26.154 4.128-10.044 6.203-20.677 6.203-31.909s-2.076-21.875-6.204-31.92zM717.383 545.023c-3.552-13.885-9.606-27.607-18.186-41.181-8.579-13.585-19.823-27.307-33.73-41.181-13.908-13.885-31.505-29.083-52.804-45.609-13.607-10.633-22.788-20.977-27.516-31.009s-7.091-20.077-7.091-30.11v-25.682h-132.849v38.966c0 17.713 2.365 32.762 7.093 45.17 4.729 12.397 12.72 23.906 23.963 34.538 16.559 15.937 31.794 29.822 45.701 41.63 13.908 11.809 25.89 22.879 35.946 33.212s17.897 20.066 23.525 29.222c5.616 9.156 8.43 18.751 8.43 28.783 0 19.489-6.055 34.688-18.163 45.609s-27.307 16.387-45.597 16.387c-27.757 0-48.872-7.68-63.333-23.029s-22.579-33.95-24.355-55.791l-136.387 8.857c6.491 62.618 29.521 110.36 69.076 143.203s90.341 49.277 152.336 49.277c27.158 0 52.689-3.702 76.606-11.105s45.021-18.497 63.321-33.293c18.301-14.795 32.762-33.131 43.394-55.019s15.949-47.004 15.949-75.349c0.001-17.125-1.775-32.624-5.327-46.497z" />
<glyph unicode="&#xe931;" glyph-name="trash" d="M153.21 667.429c6.176-15.993 16.299-30.93 29.647-44.315v-613.971c0-40.395 32.747-73.143 73.143-73.143h512c40.395 0 73.143 32.747 73.143 73.143v613.971c13.349 13.385 23.471 28.322 29.647 44.315h-717.581zM438.857 82.286c0-20.198-16.374-36.571-36.571-36.571s-36.571 16.373-36.571 36.571v402.286c0 20.198 16.373 36.571 36.571 36.571s36.571-16.373 36.571-36.571v-402.286zM658.286 82.286c0-20.198-16.374-36.571-36.571-36.571s-36.571 16.373-36.571 36.571v402.286c0 20.198 16.373 36.571 36.571 36.571s36.571-16.373 36.571-36.571v-402.286zM658.286 850.286h1.714v73.143c0 20.198-16.374 36.571-36.571 36.571-1.157 0-2.299-0.060-3.429-0.165v0.165h-217.714c-20.198 0-36.571-16.373-36.571-36.571v-73.143c-121.187 0-219.429-65.494-219.429-146.286h731.429c0 80.791-98.242 146.286-219.429 146.286zM586.857 850.286h-148v36.571h148v-36.571z" />
<glyph unicode="&#xe932;" glyph-name="unit-eximage" d="M402.286 685.714c0-70.692-57.308-128-128-128s-128 57.308-128 128c0 70.692 57.308 128 128 128s128-57.308 128-128zM0 960v-1024h371.301c-8.053 5.789-15.668 12.245-22.79 19.367-15.678 15.678-28.175 33.711-37.242 53.678l-238.125-0.048v877.859h877.714v-238.081c20.006-9.071 38.073-21.583 53.777-37.287 7.122-7.122 13.578-14.737 19.367-22.79v371.301h-1024zM950.857 298.653v-289.481l-289.539-0.058-53.748-53.747c-7.122-7.122-14.737-13.579-22.79-19.367h439.22v439.219c-5.789-8.053-12.245-15.668-19.367-22.79l-53.776-53.775zM877.714 82.286v146.323c-12.027-8.789-25.059-16.055-38.979-21.699-21.951-8.9-45.134-13.413-68.906-13.413-1.101 0-2.201 0.010-3.3 0.029 0.761-39.734-11.447-78.802-35.145-111.241h146.33zM348.511 214.429l105.286 105.287c17.473 17.473 37.866 31.009 60.611 40.231 21.95 8.9 45.133 13.413 68.906 13.413 1.101 0 2.201-0.010 3.301-0.029-0.94 49.043 17.873 97.074 53.67 132.872l89.104 89.103-144.245 72.123-219.429-292.571-219.429 146.286v-438.857h148.602c-0.012 0.87-0.031 1.74-0.031 2.612 0 23.776 4.514 46.963 13.417 68.915 9.223 22.746 22.761 43.14 40.237 60.615zM980.389 587.246c-58.148 58.148-152.426 58.148-210.573 0l-105.287-105.287c-38.968-38.968-51.807-94.159-38.545-143.831l196.475 196.474c29.075 29.075 76.213 29.074 105.287-0.001s29.075-76.212 0-105.286c-0.020-0.020-0.040-0.039-0.060-0.059l-196.416-196.416c49.673-13.263 104.864-0.424 143.833 38.544l105.287 105.287c58.147 58.147 58.147 152.426 0 210.574zM727.159 228.73l-196.475-196.475c-29.074-29.074-76.212-29.074-105.287 0-29.074 29.074-29.074 76.212 0 105.286l196.474 196.475c-49.672 13.262-104.863 0.423-143.83-38.545l-105.287-105.287c-58.148-58.148-58.148-152.425 0.001-210.574s152.425-58.148 210.573 0l105.287 105.287c38.969 38.969 51.807 94.161 38.545 143.833zM527.674 184.163c0-27.411 22.222-49.632 49.633-49.632 13.75 0 26.192 5.591 35.181 14.623l0.001-0.001 198.445 198.445c8.982 8.982 14.537 21.39 14.537 35.096 0 27.411-22.222 49.633-49.633 49.633-13.705 0-26.114-5.555-35.096-14.537l-198.025-198.038c-9.277-9.018-15.043-21.629-15.043-35.589z" />
<glyph unicode="&#xe933;" glyph-name="unit-file" d="M0 960v-1024h1024v1024h-1024zM950.857 9.172l-877.714-0.174v877.859h877.714v-877.685zM292.571 82.286h585.143v475.907l-255.521 255.521h-329.622v-438.856h-146.286v-219.43h146.286v-73.142zM585.143 777.143l256-256h-256v256zM182.857 192v146.286h402.286v-146.286h-402.286z" />
<glyph unicode="&#xe934;" glyph-name="unit-image_h2" d="M402.286 685.714c0-70.692-57.308-128-128-128s-128 57.308-128 128c0 70.692 57.308 128 128 128s128-57.308 128-128zM731.429 155.429c-40.395 0-73.143-32.747-73.143-73.143v-146.286h146.286v146.286c0 40.395-32.747 73.143-73.143 73.143zM0 960v-1024h512v585.143h146.286v-231.915c22.878 8.086 47.496 12.487 73.143 12.487 121.187 0 219.429-98.242 219.429-219.429v-146.286h73.143v1024h-1024zM950.857 275.803c-20.917 23.699-45.611 43.982-73.142 59.909v185.431l-292.571 146.286-219.429-292.571-219.429 146.286v-438.857h292.571c0-0.030 0.001-0.059 0.001-0.088v-73.127l-365.714-0.073v877.859h877.714v-611.054z" />
<glyph unicode="&#xe935;" glyph-name="unit-image" d="M0 959.999v-1023.999h1024v1023.999h-1024zM950.857 9.143h-877.714v877.714h877.714v-877.714zM877.714 521.143l-146.286 146.286-292.571-365.714-292.571 219.429v-438.857h731.429zM512 667.429c0-80.791-65.494-146.286-146.286-146.286s-146.286 65.494-146.286 146.286c0 80.791 65.494 146.286 146.286 146.286s146.286-65.494 146.286-146.286z" />
<glyph unicode="&#xe936;" glyph-name="unit-map" d="M0 959.999v-1023.999h1024v1023.999h-1024zM950.857 9.143h-877.714v877.714h877.714v-877.714zM512 82.286c20.198 0 36.571 16.373 36.571 36.571 0 256 182.857 292.571 182.857 475.429 0 121.187-98.242 219.429-219.429 219.429s-219.429-98.242-219.429-219.429c0-182.857 182.857-219.429 182.857-475.429 0-20.198 16.373-36.571 36.571-36.571zM438.857 594.286c0 40.395 32.747 73.143 73.143 73.143s73.143-32.747 73.143-73.143-32.747-73.143-73.143-73.143-73.143 32.747-73.143 73.143z" />
<glyph unicode="&#xe937;" glyph-name="unit-text" d="M0 959.999v-1023.999h1024v1023.999h-1024zM950.857 9.143h-877.714v877.714h877.714v-877.714zM292.571 704h146.286v-512.001c0-40.396-49.121-73.143-109.714-73.143v-36.57h365.714v36.57c-60.594 0-109.714 32.747-109.714 73.143v512.001h146.286c40.395 0 73.143-49.121 73.143-109.714h36.571v219.429h-658.286v-219.429h36.571c0 60.594 32.747 109.714 73.143 109.714z" />
<glyph unicode="&#xe938;" glyph-name="unit-youtube" d="M0 959.999v-1023.999h1024v1023.999h-1024zM950.857 9.143h-877.714v877.714h877.714v-877.714zM292.571 228.571h438.857c40.395 0 73.143 32.747 73.143 73.143v292.571c0 40.395-32.747 73.143-73.143 73.143h-438.857c-40.395 0-73.143-32.747-73.143-73.143v-292.571c0-40.395 32.747-73.143 73.143-73.143zM402.286 557.714l256-109.714-256-109.714v219.429z" />
<glyph unicode="&#xe939;" glyph-name="up" d="M212.534 449.655l224.894 224.894v-736.894h149.143v736.896l224.896-224.896 105.46 105.459-404.968 404.885-404.885-404.885z" />
<glyph unicode="&#xe93a;" glyph-name="user-group" d="M777.482 82.286h-246.518v86.854c2.922 7.842 13.585 15.682 19.877 18.425s117.923 36.875 147.761 54.482c2.187 5.638 12.254 21.046 14.033 29.167-0.577 6.037 0.286 26.545-3.302 33.845-19.522 23.238-43.191 57.559-46.346 124.344-2.477 52.409 33.426 128.312 114.034 128.312 0.154 0 0.307-0.007 0.46-0.011 0.153 0.003 0.305 0.011 0.46 0.011 80.609 0 116.511-75.903 114.035-128.313-3.155-66.784-26.824-101.106-46.346-124.344-3.588-7.301-2.725-27.808-3.301-33.845 1.778-8.121 11.845-23.529 14.033-29.167 18.409-10.862 67.95-28.015 104.68-40.206 40.126 73.045 62.958 156.935 62.958 246.161 0 282.77-229.23 511.999-512 511.999s-511.999-229.229-511.999-511.999c0-89.226 22.831-173.116 62.959-246.16 36.73 12.191 86.271 29.344 104.679 40.206 2.189 5.638 12.255 21.046 14.034 29.167-0.577 6.037 0.286 26.545-3.302 33.845-19.523 23.238-43.191 57.559-46.346 124.344-2.478 52.409 33.426 128.312 114.034 128.312 0.154 0 0.306-0.007 0.459-0.011 0.153 0.003 0.305 0.011 0.459 0.011 80.609 0 116.511-75.903 114.035-128.313-3.155-66.784-26.823-101.106-46.346-124.344-3.587-7.301-2.725-27.808-3.302-33.845 1.778-8.121 11.845-23.529 14.033-29.167 29.838-17.607 141.468-51.74 147.761-54.482s16.955-10.583 19.878-18.425v-86.854h-339.356c92.345-90.489 218.815-146.286 358.319-146.286s265.974 55.796 358.319 146.286h-92.837zM394.816 448c-1.219 13.911-4.291 28.088-9.127 41.835-7.841 22.284-20.101 42.571-35.454 58.667-6.847 7.178-14.241 13.5-22.115 18.945 36.762 12.198 86.539 29.419 105.002 40.313 2.188 5.638 12.254 21.046 14.034 29.167-0.577 6.037 0.286 26.545-3.302 33.845-19.522 23.238-43.191 57.559-46.346 124.344-2.477 52.41 33.426 128.313 114.034 128.313 0.155 0 0.306-0.007 0.459-0.011 0.153 0.003 0.306 0.011 0.46 0.011 80.608 0 116.511-75.903 114.035-128.313-3.155-66.784-26.823-101.106-46.347-124.344-3.587-7.301-2.725-27.808-3.301-33.845 1.778-8.121 11.845-23.529 14.033-29.167 18.463-10.894 68.24-28.116 105.002-40.313-7.875-5.445-15.269-11.767-22.116-18.946-15.354-16.096-27.613-36.383-35.454-58.667-4.837-13.747-7.909-27.924-9.128-41.834h-234.369z" />
<glyph unicode="&#xe93b;" glyph-name="user" d="M982.716 154.655c-13.070 5.694-244.918 76.587-306.889 113.154-4.545 11.711-25.453 43.711-29.146 60.578 1.201 12.538-0.593 55.13 6.858 70.293 40.546 48.263 89.704 119.546 96.258 258.253 5.143 108.852-69.425 266.496-236.843 266.496-0.321 0-0.636-0.014-0.954-0.022-0.318 0.007-0.633 0.022-0.954 0.022-167.418 0-241.986-157.644-236.843-266.495 6.554-138.706 55.711-209.99 96.258-258.253 7.451-15.163 5.659-57.755 6.858-70.293-3.694-16.867-24.602-48.867-29.146-60.578-61.97-36.567-293.818-107.46-306.887-113.154s-35.216-21.979-41.284-38.264v-180.391h511.999c0 0.001 0 0.001 0 0.002 0.002-0.001 0.002-0.001 0.002-0.002h511.998v180.391c-6.069 16.285-28.213 32.57-41.284 38.264z" />
<glyph unicode="&#xe93c;" glyph-name="workflow" d="M927.598 940.685c-74.13 35.18-154.504 20.965-179.521-31.749-15.655-32.986-50.264-166.667-55.813-270.726-27.887-29.534-53.628-62.442-70.685-88.071-128.701 39.343-238.381 31.761-266.505-25.19l-0.013 0.006-0.419-0.885c-0.002-0.004-0.005-0.009-0.006-0.013s-0.004-0.009-0.006-0.013l-3.533-7.442 0.491-0.231c-23.875-73.645 84.366-192.461 248.803-270.498 90.932-43.154 180.677-65.114 249.82-65.114 56.889 0 99.822 14.858 118.044 44.999l0.297-0.14 2.742 5.779c0.001 0.003 0.003 0.007 0.005 0.011s0.003 0.007 0.005 0.011l0.421 0.887-0.014 0.006c26.946 59.143-40.146 151.749-156.885 227.573 8.458 27.728 16.991 65.158 22.265 102.726 78.536 69.738 163.44 185.229 179.434 218.93 25.015 52.714-14.799 123.966-88.928 159.146zM850.21 146.472c-37.962 0-80.103 5.871-125.255 17.449-45.975 11.79-92.831 28.941-139.263 50.976-86.451 41.027-161.275 94.427-210.691 150.363-25.52 28.887-43.302 57.365-52.852 84.642-0.39 1.113-0.761 2.223-1.123 3.333l-28.679-60.441c-0.048-0.099-0.098-0.197-0.146-0.297-12.081-25.457-6.49-57.235 13.164-91.255-170.681-6.77-305.365-85.837-305.365-182.383 0-100.989 147.362-182.857 329.143-182.857 152.693 0 281.095 57.765 318.28 136.105 126.984-37.659 234.417-29.204 261.441 27.741 0.047 0.1 0.091 0.202 0.138 0.302l0.005-0.002 28.679 60.433c-24.209-9.361-53.619-14.106-87.474-14.106zM422.771 181.692c26.374-18.917 55.861-37.074 87.828-53.758 0.92-2.974 1.401-6.003 1.401-9.077 0-40.395-81.868-73.143-182.857-73.143s-182.857 32.747-182.857 73.143 81.869 73.143 182.857 73.143c34.221 0 66.241-3.764 93.629-10.308zM324.571-27.429c-159.058 0-288 65.494-288 146.286s128.942 146.286 288 146.286c2.089 0 4.171-0.014 6.249-0.036 10.482-12.681 22.637-25.47 36.297-38.174-12.335 1.076-25.023 1.639-37.974 1.639-121.187 0-219.429-49.121-219.429-109.714s98.241-109.714 219.429-109.714c115.030 0 209.383 44.257 218.673 100.574 19.309-8.849 38.533-16.742 57.483-23.665-29.318-64.997-143.874-113.481-280.727-113.481z" />
<glyph unicode="&#xe93d;" glyph-name="google" d="M1022.743 484.286h-496.171v-141.6h330.057c-45.029-147.6-182.286-254.971-344.629-254.971-198.971 0-360.229 161.314-360.229 360.229s161.314 360.229 360.229 360.229c99.886 0 190.286-40.686 255.543-106.343l115.771 98.571c-93.314 98.286-225.143 159.543-371.371 159.543-282.743 0-512-229.257-512-512s229.257-512 512-512 512 229.257 512 512c0.057 12.286-0.4 24.4-1.2 36.343z" />
<glyph unicode="&#xe93e;" glyph-name="google-square" d="M909.714 960h-795.429c-62.857 0-114.286-51.429-114.286-114.286v-795.429c0-62.857 51.429-114.286 114.286-114.286h795.429c62.857 0 114.286 51.429 114.286 114.286v795.429c0 62.857-51.429 114.286-114.286 114.286zM512 86.857c-199.429 0-361.143 161.714-361.143 361.143s161.714 361.143 361.143 361.143c103.143 0 196.114-43.2 261.943-112.514l-81.657-69.543c-46.057 46.343-109.771 75.029-180.286 75.029-140.343 0-254.114-113.771-254.114-254.114s113.771-254.114 254.114-254.114c114.514 0 211.314 75.714 243.086 179.829h-232.8v99.886h350c0.571-8.457 0.914-17.029 0.914-25.6-0.057-199.429-161.771-361.143-361.2-361.143z" />
<glyph unicode="&#xe93f;" glyph-name="config_access" d="M877.714 521.143h-109.714v180.857c0 142.49-115.512 258-258 258s-258-115.51-258-258v-180.857h-105.714c-40.396 0-73.143-32.747-73.143-73.143v-438.857c0-40.395 32.747-73.143 73.143-73.143h731.429c40.395 0 73.143 32.747 73.143 73.143v438.857c0 40.395-32.747 73.143-73.143 73.143zM562.489 204.289l22.654-158.575h-146.287l22.654 158.575c-35.186 18.271-59.225 55.039-59.225 97.425 0 60.593 49.121 109.714 109.714 109.714s109.714-49.121 109.714-109.714c0-42.386-24.040-79.154-59.225-97.425zM658.286 521.143h-292.571v182.857c0 80.791 65.494 146.286 146.286 146.286s146.286-65.494 146.286-146.286v-182.857z" />
<glyph unicode="&#xe940;" glyph-name="config_alias_list" d="M914.286 960h-585.142l-109.715-365.714v-112h253.714v-107.429h514.286c20.198 0 36.571 16.374 36.571 36.571v182.857l-109.714 365.714zM749.714 630.858c-10.099 0-18.286-8.187-18.286-18.286v-54.858h-219.429v54.858c0 10.099-8.186 18.286-18.286 18.286h-201.142l73.142 292.571h512l73.143-292.571h-201.143zM313.673 134.902c-19.977-19.977-35.445-37.574-46.269-52.616h159.539l-82.942 82.943-30.328-30.327zM987.429 338.286h-514.286v-256h514.286c20.198 0 36.571 16.374 36.571 36.571v182.857c0 20.198-16.374 36.571-36.571 36.571zM197.748 359.969l-72.888-91.11c-80.772-100.965-99.543-211.669-51.714-277.998 37.429-51.904 102.469-59.138 140.557-53.029 42.27 6.78 83.566 29.141 110.013 74.649-36.571-18.286-79.743-17.828-97.157 1.633-27.265 30.47-6.843 75.319 62.871 145.033l54.571 54.571 94.855-94.857v329.14h-329.139l88.030-88.031z" />
<glyph unicode="&#xe941;" glyph-name="config_api_bing_image-search" d="M329.143 704c0-40.396-32.747-73.143-73.143-73.143s-73.143 32.747-73.143 73.143c0 40.396 32.747 73.143 73.143 73.143s73.143-32.747 73.143-73.143zM109.714 338.286h438.857c0 102.121 59.798 190.273 146.286 231.359v34.615l-109.714 99.74-292.571-219.429-182.857 119.689v-265.974zM804.571 557.714c-121.187 0-219.429-98.241-219.429-219.429 0-32.198 6.934-62.775 19.393-90.322l-201.932-201.932c-0.001-0.158-0.007-0.315-0.007-0.473 0-0.053 0.003-0.105 0.003-0.158 0.085-60.382 49.016-109.314 109.398-109.398 0.002 0 0.003 0 0.005 0l202.247 202.247c27.546-12.458 58.124-19.393 90.321-19.393 121.187 0 219.429 98.242 219.429 219.429s-98.241 219.429-219.429 219.429zM804.571 228c-60.91 0-110.286 49.377-110.286 110.286s49.376 110.286 110.286 110.286c60.908 0 110.286-49.376 110.286-110.286s-49.378-110.286-110.286-110.286zM561.995 256.282c-4.934 14.599-8.589 29.787-10.827 45.433h-478.025v585.143h658.286v-303.173c23.175 6.897 47.726 10.602 73.142 10.602 0 0 0 0 0 0v365.714h-804.571v-731.429h534.285l27.71 27.71z" />
<glyph unicode="&#xe942;" glyph-name="config_api_bing_web-search" d="M205.579 415.794c42.607-2.49 90.718-4.018 141.85-4.314v164.517h-164.916c1.432-57.977 9.635-112.404 23.066-160.203zM182.513 612.569h164.916v164.52c-51.131-0.296-99.242-1.823-141.849-4.314-13.432-47.799-21.635-102.227-23.067-160.206zM217.054 808.555c40.622 2.939 84.498 4.709 130.375 5.082v144.561c-53.597-10.577-100.411-67.148-130.375-149.643zM347.429 230.369v144.562c-45.877 0.373-89.753 2.143-130.375 5.082 29.965-82.497 76.778-139.069 130.375-149.645zM584.918 612.569h146.059c-2.355 47.821-13.898 93.223-32.895 134.486-15.709 9.507-65.335 17.742-134.845 23.18 12.668-47.987 20.314-101.318 21.681-157.666zM676.589 786.993c-45.666 73.512-116.68 129.632-200.828 156.151 31.452-33.421 57.961-80.903 77.001-137.803 47.751-4.569 89.831-10.831 123.827-18.349zM384 958.198v-144.561c45.877-0.373 89.753-2.143 130.375-5.082-29.964 82.495-76.778 139.066-130.375 149.643zM514.375 380.013c-40.622-2.939-84.499-4.709-130.375-5.082v-144.562c53.597 10.576 100.411 67.148 130.375 149.645zM548.916 575.997h-164.916v-164.517c51.132 0.296 99.242 1.823 141.85 4.314 13.431 47.798 21.634 102.225 23.066 160.203zM54.838 401.574c46.394-74.683 118.95-131.416 204.861-157.395-31.916 33.427-58.812 81.285-78.082 138.769-48.968 4.59-92.083 10.955-126.778 18.627zM171.109 770.46c-71.039-5.435-121.837-13.767-137.762-23.407-18.998-41.262-30.54-86.664-32.895-134.484h148.917c1.368 56.436 9.037 109.845 21.741 157.891zM525.849 772.775c-42.607 2.49-90.717 4.018-141.849 4.314v-164.52h164.916c-1.432 57.979-9.635 112.407-23.067 160.206zM259.699 944.389c-85.91-25.98-158.466-82.711-204.861-157.395 34.695 7.671 77.81 14.036 126.778 18.627 19.27 57.484 46.167 105.342 78.082 138.769zM149.369 575.997h-148.917c2.355-47.818 13.897-93.219 32.893-134.481 15.924-9.641 66.722-17.972 137.763-23.408-12.703 48.046-20.371 101.454-21.739 157.889zM567.249 434.447c26.107 64.366 77.638 115.701 142.135 141.55h-124.466c-1.215-50.117-7.402-97.843-17.669-141.55zM475.762 245.423c28 8.824 54.543 20.93 79.185 35.858-4.17 18.331-6.375 37.409-6.375 57.002 0 14.798 1.261 29.302 3.671 43.414-19.001-56.219-45.311-103.155-76.48-136.275zM804.571 557.712c-121.187 0-219.429-98.241-219.429-219.429 0-32.198 6.935-62.775 19.393-90.322l-201.932-201.933c-0.001-0.158-0.006-0.315-0.006-0.473 0-0.053 0.002-0.105 0.002-0.158 0.085-60.382 49.016-109.314 109.398-109.398 0.002 0 0.003 0 0.005 0l202.247 202.247c27.546-12.458 58.124-19.393 90.322-19.393 121.187 0 219.429 98.242 219.429 219.429s-98.241 219.429-219.429 219.429zM804.571 227.998c-60.91 0-110.286 49.377-110.286 110.286s49.375 110.286 110.286 110.286c60.908 0 110.286-49.376 110.286-110.286s-49.378-110.286-110.286-110.286z" />
<glyph unicode="&#xe943;" glyph-name="config_api_instagram_users_media_liked" d="M73.143 301.714v365.714h47.173c-6.897-23.176-10.601-47.726-10.601-73.143 0-141.385 114.615-256 256-256s256 114.615 256 256c0 25.417-3.704 49.967-10.601 73.143h47.173v-234.265c25.461 0 50.345-5.402 73.143-15.509v542.346h-731.429v-731.429h479.332c-1.065 7.917-1.618 15.939-1.618 24.021 0 16.783 2.269 33.228 6.762 49.122h-411.333zM512 886.857h146.286v-146.286h-82.461c-17.337 24.854-38.97 46.487-63.825 63.824v82.462zM365.714 777.143c100.989 0 182.857-81.869 182.857-182.857s-81.868-182.857-182.857-182.857-182.857 81.868-182.857 182.857c0 100.989 81.868 182.857 182.857 182.857zM1024 252.592c0 80.791-65.494 146.286-146.286 146.286-43.589 0-82.717-19.071-109.517-49.317l-0.198 0.198-0.198-0.198c-26.8 30.245-65.928 49.316-109.516 49.316-80.791 0-146.286-65.494-146.286-146.286 0-43.589 19.071-82.717 49.317-109.517l-0.196-0.196 206.879-206.879 206.879 206.88-0.195 0.195c30.245 26.8 49.317 65.928 49.317 109.517z" />
<glyph unicode="&#xe944;" glyph-name="config_api_instagram_users_media_recent" d="M475.439 448h36.561v36.561c-10.4-13.843-22.718-26.161-36.561-36.561zM182.857 594.286c0 100.989 81.868 182.857 182.857 182.857s182.857-81.869 182.857-182.857c0-10.306-0.866-20.409-2.505-30.25 19.683 18.743 46.322 30.25 75.648 30.25 0 25.417-3.704 49.967-10.601 73.143h47.173v-73.143h73.143v365.714h-731.429v-731.429h365.714v73.143h-292.571v365.714h47.173c-6.898-23.176-10.602-47.726-10.602-73.143 0-141.385 114.615-256 256-256 0 29.326 11.506 55.965 30.25 75.648-9.841-1.638-19.944-2.505-30.25-2.505-100.989 0-182.857 81.868-182.857 182.857zM512 886.857h146.286v-146.286h-82.461c-17.337 24.854-38.97 46.487-63.825 63.824v82.462zM950.857 557.714h-329.143c-40.395 0-73.143-32.747-73.143-73.143v-36.571h256c60.594 0 109.714-49.121 109.714-109.714v-256h36.571c40.395 0 73.143 32.747 73.143 73.143v329.143c0 40.395-32.747 73.143-73.143 73.143zM804.571 411.429h-329.143c-40.395 0-73.143-32.747-73.143-73.143v-329.143c0-40.395 32.747-73.143 73.143-73.143h329.143c40.395 0 73.143 32.747 73.143 73.143v329.143c0 40.395-32.747 73.143-73.143 73.143z" />
<glyph unicode="&#xe945;" glyph-name="config_api_twitter_list_members" d="M405.691 229.606c-5.752 19.931-9.145 41.498-10.267 65.242-2.103 44.52 15.675 92.183 46.396 124.39 27.934 29.284 64.682 44.762 106.273 44.762 0.159 0 0.319-0.001 0.478-0.003 0.158 0.002 0.317 0.003 0.477 0.003 23.899 0 46.195-5.121 66.143-15.026 3.025 38.481 19.811 77.278 46.058 104.794 27.933 29.283 64.682 44.762 106.273 44.762 0.159 0 0.319-0.001 0.478-0.003 0.159 0.002 0.318 0.003 0.478 0.003 41.591 0 78.34-15.479 106.274-44.763 0.086-0.091 0.17-0.186 0.257-0.277 1.784 13.394 2.706 27.005 2.706 40.795 0 201.978-196.483 365.714-438.857 365.714s-438.858-163.737-438.858-365.715c0-132.338 84.351-248.255 210.693-312.46-6.417-55.407-28.506-111.768-64.407-162.969 71.086 26.241 129.846 70.2 167.455 124.793 29.474-7.293 60.243-12.069 91.951-14.044zM1003.359 179.858c-6.536 2.846-122.46 38.293-153.445 56.577-2.273 5.856-12.726 21.856-14.574 30.289 0.601 6.27-0.297 27.565 3.43 35.147 20.274 24.131 44.852 59.774 48.129 129.126 2.571 54.426-34.712 133.249-118.421 133.249-0.161 0-0.319-0.008-0.478-0.012-0.159 0.004-0.317 0.012-0.478 0.012-83.708 0-120.992-78.822-118.421-133.249 0.095-2.005 0.21-3.979 0.339-5.929 2.001-1.881 3.965-3.82 5.882-5.831 30.721-32.206 48.498-79.869 46.395-124.389-0.297-6.283-0.761-12.408-1.375-18.398 0.087-4.155 0.125-7.715 0.318-9.726-0.434-1.983-1.347-4.387-2.514-6.977-3.414-21.201-9.033-40.593-16.998-58.643-9.339-21.165-20.514-37.157-30.201-49.29-0.313-4.074-0.421-9.701-0.478-12.561-0.011-0.535-0.021-1.057-0.031-1.563 1.478-3 3.69-7.013 5.065-9.509 0.169-0.306 0.336-0.609 0.502-0.91 28.073-13.103 93.155-34.357 119.338-42.908 16.377-5.348 19.513-6.397 22.278-7.602 3.146-1.37 7.086-3.465 11.281-6.231h215.098v90.195c-3.035 8.143-14.107 16.285-20.641 19.133zM783.93 45.328c-6.536 2.846-122.46 38.293-153.445 56.577-2.273 5.856-12.726 21.856-14.574 30.289 0.601 6.27-0.297 27.565 3.43 35.147 20.274 24.131 44.852 59.774 48.129 129.126 2.571 54.426-34.712 133.249-118.421 133.249-0.161 0-0.319-0.008-0.477-0.011-0.159 0.004-0.318 0.011-0.478 0.011-83.708 0-120.992-78.822-118.421-133.249 3.277-69.353 27.856-104.995 48.129-129.126 3.726-7.582 2.829-28.877 3.429-35.147-1.846-8.433-12.299-24.433-14.573-30.289-30.985-18.283-146.909-53.73-153.442-56.577-6.536-2.847-17.609-10.99-20.643-19.133v-90.195h512v90.195c-3.037 8.143-14.109 16.285-20.643 19.133z" />
<glyph unicode="&#xe946;" glyph-name="config_api_twitter_list_statuses" d="M877.714 594.286c0 201.978-196.483 365.714-438.857 365.714s-438.857-163.736-438.857-365.714c0-132.338 84.351-248.255 210.693-312.46-6.417-55.407-28.506-111.768-64.407-162.969 71.086 26.241 129.846 70.2 167.455 124.793 28.415-7.031 58.041-11.714 88.545-13.811v327.875h473.257c1.434 12.029 2.172 24.228 2.172 36.571zM438.857 521.143h146.286v-146.286h-146.286v146.286zM658.286 521.143h365.714v-146.286h-365.714v146.286zM438.857 301.714h146.286v-146.286h-146.286v146.286zM658.286 301.714h365.714v-146.286h-365.714v146.286zM438.857 82.286h146.286v-146.286h-146.286v146.286zM658.286 82.286h365.714v-146.286h-365.714v146.286z" />
<glyph unicode="&#xe947;" glyph-name="config_api_twitter_search" d="M804.571 557.714c-121.187 0-219.429-98.241-219.429-219.429 0-32.198 6.934-62.775 19.393-90.322l-201.932-201.932c-0.001-0.158-0.006-0.315-0.006-0.473 0-0.053 0.002-0.105 0.002-0.158 0.085-60.382 49.016-109.314 109.398-109.398h0.005l202.247 202.247c27.547-12.458 58.124-19.393 90.322-19.393 121.187 0 219.429 98.242 219.429 219.429s-98.242 219.429-219.429 219.429zM804.571 228c-60.91 0-110.286 49.377-110.286 110.286s49.376 110.286 110.286 110.286c60.909 0 110.286-49.376 110.286-110.286s-49.377-110.286-110.286-110.286zM545.090 239.377l16.905 16.905c-8.701 25.745-13.423 53.323-13.423 82.005 0 141.385 114.615 256 256 256 25.348 0 49.836-3.685 72.958-10.547 0.119 3.505 0.185 7.019 0.185 10.547 0 201.978-196.483 365.714-438.857 365.714s-438.857-163.736-438.857-365.714c0-132.338 84.351-248.255 210.693-312.46-6.417-55.407-28.506-111.768-64.407-162.969 71.086 26.241 129.846 70.2 167.455 124.793 39.65-9.81 81.645-15.079 125.117-15.079 36.635 0 72.216 3.756 106.233 10.805z" />
<glyph unicode="&#xe948;" glyph-name="config_api_twitter_statuses_home-timeline" d="M768 535.43v22.285h107.542c1.433 12.029 2.172 24.228 2.172 36.571 0 201.978-196.483 365.714-438.857 365.714s-438.857-163.736-438.857-365.714c0-132.338 84.351-248.255 210.693-312.46-6.416-55.407-28.505-111.768-64.407-162.969 71.086 26.241 129.846 70.2 167.455 124.793 24.657-6.101 50.221-10.442 76.482-12.855l341.206 341.206 36.571-36.571zM914.286 338.286v182.857h-109.714v-73.143l-73.143 73.143-292.572-292.572h73.144v-292.571h438.857v292.571h73.143l-109.715 109.715zM694.857 9.143h-109.714v182.857h109.714v-182.857zM877.714 9.143h-109.714v182.857h109.714v-182.857z" />
<glyph unicode="&#xe949;" glyph-name="config_api_twitter_statuses_user-timeline" d="M556.938 241.969c-6.517 10.211-12.983 21.854-18.847 35.143-15.006 34.006-23.311 71.937-25.391 115.958-1.188 25.153 2.974 52.062 12.037 77.819 9.846 27.985 25.209 53.427 44.429 73.575 33.738 35.37 78.163 54.066 128.471 54.066 0.203 0 0.407-0.002 0.609-0.005 0.203 0.003 0.404 0.005 0.605 0.005 50.309 0 94.734-18.696 128.473-54.066 13.456-14.107 25.013-30.815 34.118-49.169 10.598 31.484 16.273 64.684 16.273 98.99 0 201.978-196.483 365.714-438.857 365.714s-438.857-163.736-438.857-365.714c0-132.338 84.351-248.255 210.693-312.46-6.417-55.407-28.506-111.768-64.407-162.969 71.085 26.241 129.846 70.2 167.454 124.793 39.651-9.81 81.646-15.079 125.117-15.079 40.91 0 80.51 4.671 118.081 13.397zM997.733 75.118c-8.316 3.622-155.827 48.727-195.255 71.993-2.892 7.452-16.194 27.812-18.545 38.542 0.765 7.978-0.378 35.077 4.363 44.724 25.798 30.707 57.074 76.061 61.244 164.311 3.272 69.256-44.171 169.557-150.69 169.557-0.203 0-0.405-0.010-0.607-0.014-0.202 0.005-0.403 0.014-0.607 0.014-106.518 0-153.962-100.3-150.69-169.557 4.169-88.25 35.446-133.605 61.243-164.311 4.741-9.647 3.601-36.746 4.364-44.724-2.351-10.73-15.653-31.090-18.544-38.542-39.428-23.265-186.941-68.37-195.255-71.993-8.316-3.623-22.405-13.985-26.266-24.346v-114.773l325.755 0.001c0.001-0.001 0.001-0.001 0.001-0.001l325.755-0.001v114.773c-3.862 10.361-17.95 20.722-26.267 24.346z" />
<glyph unicode="&#xe94a;" glyph-name="config_authorize" d="M1024 228.571l-73.143 73.143-90.811-90.811-36.625 36.518 90.865 90.865-73.143 73.143-90.973-90.973-266.726 265.945c18.245 35.214 28.555 75.202 28.555 117.599 0 141.385-114.615 256-256 256s-256-114.615-256-256 114.615-256 256-256c42.432 0 82.45 10.327 117.686 28.6l540.6-540.6 109.714 111.429-90.704 90.438 90.704 90.705zM256 594.286c-60.594 0-109.714 49.121-109.714 109.714s49.121 109.714 109.714 109.714 109.714-49.121 109.714-109.714-49.121-109.714-109.714-109.714z" />
<glyph unicode="&#xe94b;" glyph-name="config_banner" d="M745.571 611.489c17.477 17.476 37.87 31.014 60.615 40.238 21.953 8.903 45.139 13.416 68.915 13.416 0.872 0 1.742-0.019 2.614-0.031v294.889h-877.716v-365.714h728.368l17.203 17.203zM769.829 193.497c-1.101 0-2.201 0.010-3.3 0.029 0.246-12.837-0.874-25.601-3.286-38.098h114.473v73.181c-12.029-8.789-25.061-16.056-38.981-21.7-21.949-8.899-45.134-13.413-68.906-13.413zM453.797 319.715c17.473 17.473 37.866 31.009 60.611 40.231 21.951 8.9 45.133 13.413 68.906 13.413 1.101 0 2.201-0.010 3.301-0.029-0.94 49.043 17.873 97.074 53.671 132.872l14.94 14.94h-655.225v-365.714h308.953c9.203 22.094 22.498 41.941 39.558 59l105.286 105.287zM980.389 587.246c-58.148 58.148-152.426 58.148-210.573 0l-105.287-105.287c-38.968-38.968-51.807-94.159-38.545-143.831l196.475 196.474c29.075 29.075 76.213 29.074 105.287-0.001s29.075-76.212 0-105.286c-0.020-0.020-0.040-0.039-0.060-0.059l-196.416-196.416c49.673-13.263 104.864-0.424 143.833 38.544l105.287 105.287c58.147 58.147 58.147 152.426 0 210.574zM635.971 137.542v0l-105.287-105.287c-29.074-29.074-76.212-29.074-105.287 0-29.074 29.074-29.074 76.212 0 105.286l196.474 196.475c-49.672 13.262-104.863 0.423-143.83-38.545l-105.287-105.287c-58.148-58.148-58.148-152.425 0.001-210.574s152.425-58.148 210.573 0l105.287 105.287c38.968 38.968 51.807 94.16 38.545 143.833l-91.188-91.188zM527.674 184.163c0-27.411 22.222-49.632 49.633-49.632 13.75 0 26.192 5.591 35.181 14.623l0.001-0.001 198.445 198.445c8.982 8.982 14.537 21.39 14.537 35.096 0 27.411-22.222 49.633-49.633 49.633-13.705 0-26.114-5.555-35.096-14.537l-198.025-198.038c-9.277-9.018-15.043-21.629-15.043-35.589z" />
<glyph unicode="&#xe94c;" glyph-name="config_blog_child-list" d="M987.429 228.571h-310.859c-10.099 0-18.286-8.187-18.286-18.286v-54.857h-292.571v54.857c0 10.099-8.186 18.286-18.286 18.286h-310.857c-20.198 0-36.571-16.374-36.571-36.571v-219.429c0-20.198 16.373-36.571 36.571-36.571h950.859c20.198 0 36.571 16.374 36.571 36.571v219.429c0 20.198-16.374 36.571-36.571 36.571zM1024 521.143l-146.284 438.857h-731.43l-146.286-438.857v-219.429c0-20.198 16.373-36.571 36.571-36.571h950.859c20.198 0 36.571 16.374 36.571 36.571v219.429h-0.002zM676.571 557.714c-10.099 0-18.286-8.187-18.286-18.286v-54.857h-292.571v54.857c0 10.099-8.187 18.286-18.286 18.286h-274.286l109.714 365.714h658.286l109.714-365.714h-274.286z" />
<glyph unicode="&#xe94d;" glyph-name="config_cache" d="M768 960c-116.031 0-214.032-77.194-245.449-183.028 80.157-2.525 153.084-33.709 208.877-83.646v193.531h73.143v-167.709l73.143-73.143-51.72-51.72-49.095 49.095c38.423-52.009 61.899-115.731 64.076-184.828 105.832 31.418 183.025 129.417 183.025 245.447 0 141.385-114.615 256-256 256zM512 704c-116.031 0-214.032-77.194-245.449-183.028 80.157-2.525 153.084-33.709 208.877-83.647v193.532h73.143v-146.286h73.143v-73.143h-120.389c49.938-55.793 81.122-128.72 83.646-208.877 105.834 31.417 183.028 129.417 183.028 245.449 0 141.385-114.615 256-256 256zM256 448c-141.385 0-256-114.615-256-256s114.615-256 256-256 256 114.615 256 256-114.615 256-256 256zM292.571 176.851l-21.423-21.423h-51.72v219.429h73.143v-94.566l21.423 21.423 51.72-51.72-73.143-73.143z" />
<glyph unicode="&#xe94e;" glyph-name="config_calendar_month" d="M950.857 886.857h-146.286v73.143h-146.286v-73.143h-292.571v73.143h-146.286v-73.143h-146.286c-40.395 0-73.143-32.747-73.143-73.143v-109.581h1024v109.581c0 40.395-32.747 73.143-73.143 73.143zM0 9.143c0-40.395 32.747-73.143 73.143-73.143h877.714c40.395 0 73.143 32.747 73.143 73.143v658.286h-1024v-658.286zM109.714 557.714h804.571v-512h-804.571v512z" />
<glyph unicode="&#xe94f;" glyph-name="config_category_entry-list" d="M438.857 886.857h329.143v73.143h-548.571v-219.429h219.429zM475.429 850.286v-114.262c63.079-16.134 109.714-73.347 109.714-141.454 0-0.095-0.003-0.189-0.003-0.284h0.003v-512h219.429l219.429 218.949v549.051h-548.571zM804.571 155.429v146.286h146.286l-146.286-146.286zM420.571 704h-420.571v-768h548.571v438.857c-40.396 0.001-73.143 32.747-73.143 73.143s32.746 73.143 73.143 73.143v54.835c0 0.007 0 0.015 0 0.022s0 0.014 0 0.022c-0.013 70.682-57.315 127.978-128 127.978zM73.143-27.429h-36.571v36.571h36.571v-36.571zM146.285-27.429h-36.571v36.571h36.571v-36.571zM219.428-27.429h-36.571v36.571h36.571v-36.571zM292.571-27.429h-36.571v36.571h36.571v-36.571zM365.713-27.429h-36.571v36.571h36.571v-36.571zM438.856-27.429h-36.571v36.571h36.571v-36.571zM511.999 9.143v-36.571h-36.571v36.571h36.571z" />
<glyph unicode="&#xe950;" glyph-name="config_category_entry-summary" d="M804.571 557.714c0 60.594 49.121 109.714 109.714 109.714v164.549c0 0.008 0 0.015 0 0.022s0 0.014 0 0.022c-0.012 70.682-57.315 127.978-128 127.978h-640.001v-1024h768.001v512c-60.594 0-109.714 49.121-109.714 109.714zM475.429 740.571h292.571v-73.143h-292.571v73.143zM475.429 594.286h292.571v-73.143h-292.571v73.143zM475.429 374.857h292.571v-73.143h-292.571v73.143zM475.429 228.571h292.571v-73.143h-292.571v73.143zM256 740.571h146.286v-219.429h-146.286v219.429zM256 374.857h146.286v-219.429h-146.286v219.429zM219.428-27.429h-36.571v36.571h36.571v-36.571zM292.571-27.429h-36.571v36.571h36.571v-36.571zM365.714-27.429h-36.571v36.571h36.571v-36.571zM438.857-27.429h-36.571v36.571h36.571v-36.571zM511.999-27.429h-36.571v36.571h36.571v-36.571zM585.142-27.429h-36.571v36.571h36.571v-36.571zM658.285-27.429h-36.571v36.571h36.571v-36.571zM731.428-27.429h-36.571v36.571h36.571v-36.571zM804.571-27.429h-36.571v36.571h36.571v-36.571zM841.142 9.143h36.571v-36.571h-36.571v36.571z" />
<glyph unicode="&#xe951;" glyph-name="config_category_list" d="M530.286 960h-530.286v-804.571h146.286v731.429h499.675c-20.545 43.243-64.615 73.143-115.675 73.143zM713.143 850.286h-530.286v-804.571h146.286v731.429h499.675c-20.545 43.243-64.615 73.143-115.675 73.143zM896 740.571h-530.286v-804.571h658.286v438.857c-40.395 0-73.143 32.747-73.143 73.143s32.747 73.143 73.143 73.143v91.406c0 0.007 0 0.015 0 0.022s0 0.014 0 0.022c-0.012 70.682-57.315 127.978-128 127.978zM475.429-27.429h-36.571v36.571h36.571v-36.571zM548.571-27.429h-36.571v36.571h36.571v-36.571zM621.714-27.429h-36.571v36.571h36.571v-36.571zM694.857-27.429h-36.571v36.571h36.571v-36.571zM767.999-27.429h-36.571v36.571h36.571v-36.571zM841.142-27.429h-36.571v36.571h36.571v-36.571zM914.286-27.429h-36.571v36.571h36.571v-36.571zM987.429 9.143v-36.571h-36.571v36.571h36.571z" />
<glyph unicode="&#xe952;" glyph-name="config_column_list" d="M804.571 960h-804.571v-731.429h73.143v621.714h731.429zM914.286 813.714h-804.571v-731.429h73.143v621.714h731.429zM219.429 667.429v-731.429h804.571v731.429h-804.571zM950.857 9.143h-658.286v585.143h658.286v-585.143zM438.857 374.857h36.571c0 40.396 16.374 73.143 36.571 73.143h73.143v-292.571c0-20.198-16.374-36.571-36.571-36.571v-36.571h146.286v36.571c-20.198 0-36.571 16.373-36.571 36.571v292.571h73.143c20.198 0 36.571-32.747 36.571-73.143h36.571v73.143h0.001v73.143h-365.715v-73.143h0.001v-73.143z" />
<glyph unicode="&#xe953;" glyph-name="config_common" d="M0 954.186v-1018.186h295.469c10.693 24.076 20.31 49.261 28.746 75.418-10.333-1.493-20.897-2.275-31.643-2.275-121.187 0-219.429 98.242-219.429 219.429l73.143-0.001c0-80.791 65.494-146.285 146.286-146.285 18.783 0 36.736 3.546 53.234 9.996 12.937 60.362 19.909 124.566 19.909 191.147 0 6.117-0.065 12.21-0.182 18.286h109.896c0 333.8-207.043 609.559-475.429 652.472zM164.571 448c-30.297 0-54.857 24.561-54.857 54.857s24.56 54.857 54.857 54.857 54.857-24.561 54.857-54.857-24.56-54.857-54.857-54.857zM548.571 301.714h109.896c-0.117-6.075-0.182-12.169-0.182-18.286 0-66.581 6.972-130.785 19.909-191.147 16.498-6.45 34.451-9.996 53.234-9.996 80.791 0 146.286 65.493 146.286 146.285v0.001h73.143c0-121.187-98.241-219.429-219.429-219.429-10.747 0-21.309 0.783-31.641 2.275 8.434-26.158 18.051-51.343 28.743-75.418h295.469v1018.186c-268.385-42.913-475.429-318.672-475.429-652.472zM859.429 448c-30.297 0-54.857 24.561-54.857 54.857s24.56 54.857 54.857 54.857 54.857-24.561 54.857-54.857-24.56-54.857-54.857-54.857z" />
<glyph unicode="&#xe954;" glyph-name="config_default" d="M404.559 267.425c-125.166 16.76-221.702 123.963-221.702 253.718 0 141.385 114.615 256 256 256 129.753 0 236.957-96.536 253.717-221.703 12.744 1.499 25.709 2.275 38.855 2.275 52.541 0 102.207-12.311 146.271-34.206-0.146 27.537-2.82 54.474-7.816 80.588l-113.716 4.795c-7.262 26.322-17.713 51.321-30.91 74.557l77.010 83.789c-31.308 46.143-71.172 86.009-117.315 117.317l-83.79-77.010c-23.235 13.197-48.233 23.646-74.555 30.909l-4.795 113.717c-26.862 5.139-54.594 7.83-82.955 7.83s-56.092-2.691-82.954-7.83l-4.795-113.717c-26.321-7.263-51.321-17.713-74.557-30.909l-83.789 77.009c-46.143-31.308-86.010-71.174-117.318-117.318l77.009-83.789c-13.197-23.235-23.645-48.234-30.909-74.557l-113.716-4.795c-5.138-26.862-7.83-54.593-7.83-82.953s2.691-56.091 7.83-82.954l113.716-4.795c7.264-26.322 17.713-51.321 30.909-74.557l-77.009-83.789c31.308-46.144 71.175-86.010 117.318-117.318l83.789 77.010c23.236-13.197 48.235-23.646 74.557-30.909l4.795-113.717c26.114-4.996 53.052-7.67 80.589-7.816-21.895 44.064-34.207 93.73-34.207 146.272 0 13.146 0.775 26.11 2.274 38.854zM438.857 704c-100.99 0-182.857-81.868-182.857-182.857 0-95.072 72.558-173.187 165.319-182.015 33.102 92.843 106.711 166.452 199.554 199.554-8.829 92.759-86.943 165.319-182.016 165.319zM1018.82 173.485c3.399 17.841 5.18 36.255 5.18 55.086s-1.781 37.246-5.18 55.086l-75.791 3.195c-4.865 17.702-11.891 34.507-20.777 50.117l51.326 55.845c-20.813 30.625-47.281 57.093-77.906 77.905l-55.845-51.326c-15.609 8.886-32.415 15.913-50.116 20.777l-3.195 75.791c-17.842 3.399-36.257 5.18-55.087 5.18s-37.246-1.781-55.086-5.179l-3.195-75.791c-17.702-4.865-34.507-11.89-50.117-20.777l-55.845 51.326c-30.625-20.813-57.093-47.281-77.906-77.906l51.326-55.845c-8.887-15.61-15.913-32.416-20.777-50.118l-75.79-3.195c-3.399-17.841-5.178-36.255-5.178-55.086s1.779-37.246 5.178-55.086l75.79-3.195c4.865-17.702 11.891-34.508 20.777-50.118l-51.326-55.845c20.812-30.625 47.281-57.094 77.906-77.906l55.845 51.326c15.61-8.887 32.416-15.913 50.117-20.777l3.195-75.791c17.841-3.399 36.255-5.179 55.086-5.179s37.246 1.781 55.087 5.18l3.195 75.791c17.702 4.865 34.507 11.891 50.117 20.777l55.845-51.326c30.625 20.813 57.093 47.281 77.905 77.906l-51.326 55.845c8.886 15.61 15.913 32.416 20.777 50.117l75.791 3.195zM731.429 118.857c-60.594 0-109.714 49.121-109.714 109.714s49.12 109.714 109.714 109.714c60.593 0 109.714-49.121 109.714-109.714s-49.122-109.714-109.714-109.714z" />
<glyph unicode="&#xe955;" glyph-name="config_edit" d="M109.714 960v-1024h549.051l255.521 255.521v768.479h-804.571zM377.289 247.93l-53.387-53.446-0.611 0.618c-2.9-0.405-5.861-0.618-8.873-0.618-35.179 0-63.697 28.518-63.697 63.697 0 3.249 0.245 6.44 0.714 9.558l-0.714 0.722 263.375 263.375c-5.349 14.075-8.277 29.343-8.277 45.295 0 70.443 57.106 127.549 127.549 127.549 50.881 0 94.801-29.794 115.273-72.885l-138.398-0.038-31.538-54.626 31.538-54.626h31.538v-0.038h106.859c-20.471-43.092-64.391-72.885-115.273-72.885-16.247 0-31.783 3.040-46.075 8.579l-210.004-210.232zM621.714-27.189v255.521h255.521l-255.521-255.521z" />
<glyph unicode="&#xe956;" glyph-name="config_entry_archive-list" d="M658.286 960h-658.286v-804.571h146.286v731.429h512zM841.143 850.286h-658.286v-804.571h146.286v731.429h512zM365.714 740.571v-804.571h402.765l255.521 255.521v549.051h-658.286zM438.857 374.857c0 141.385 114.615 256 256 256s256-114.615 256-256c0-25.417-3.71-49.967-10.61-73.143h-77.758c9.789 22.399 15.225 47.135 15.225 73.143 0 100.989-81.869 182.857-182.857 182.857s-182.857-81.868-182.857-182.857c0-88.465 62.822-162.253 146.286-179.196v-74.208c-124.061 17.746-219.429 124.437-219.429 253.404zM804.571 411.429v-73.143h-146.286v182.857h73.143v-109.714h73.143zM731.429-27.429v256h256l-256-256z" />
<glyph unicode="&#xe957;" glyph-name="config_entry_body" d="M109.714 960v-1024h549.051l255.521 255.521v768.479h-804.571zM621.714-27.189v255.521h255.52l-255.52-255.521z" />
<glyph unicode="&#xe958;" glyph-name="config_entry_calendar" d="M0 411.429c0 40.395 32.747 73.143 73.143 73.143h36.571v36.571h36.571v365.714h512v73.143h-658.286v-548.571zM329.143 484.571v292.571h512v73.143h-658.286v-329.143h36.571v-36.571zM365.714 740.571v-256h36.571v36.571h109.714v-36.571h36.571c40.395 0 73.143-32.747 73.143-73.143v-402.286c0-28.102-10.571-53.731-27.946-73.142h174.711l255.521 255.521v549.051h-658.286zM731.429-27.429v256h256l-256-256zM0 9.143c0-40.395 32.747-73.143 73.143-73.143h438.857c40.395 0 73.143 32.747 73.143 73.143v329.143h-585.143v-329.143z" />
<glyph unicode="&#xe959;" glyph-name="config_entry_continue" d="M109.714 960v-621.714h549.051l255.52 255.521v366.194h-804.571zM621.714 375.097v255.521h255.52l-255.52-255.521zM109.714-64h804.571v365.714h-804.571v-365.714zM402.287 155.429h73.141v73.143h73.145v-73.143h73.141v-73.143h-73.141v-73.143h-73.145v73.143h-73.141v73.143z" />
<glyph unicode="&#xe95a;" glyph-name="config_entry_headline" d="M109.714 960v-1024h549.051l255.521 255.521v768.479h-804.571zM365.714 777.143h438.857v-73.143h-438.857v73.143zM365.714 630.857h438.857v-73.143h-438.857v73.143zM365.714 484.571h438.857v-73.143h-438.857v73.143zM292.571 118.857h-73.143v73.143h73.143v-73.143zM292.571 265.143h-73.143v73.143h73.143v-73.143zM292.571 411.429h-73.143v73.143h73.143v-73.143zM292.571 557.714h-73.143v73.143h73.143v-73.143zM292.571 704h-73.143v73.143h73.143v-73.143zM548.571 118.857h-182.857v73.143h182.857v-73.143zM548.573 265.143h-182.858v73.143h438.858v-36.571h-256v-36.571zM621.714-27.189v255.521h255.521l-255.521-255.521z" />
<glyph unicode="&#xe95b;" glyph-name="config_entry_list" d="M658.286 960h-658.286v-804.571h146.286v731.429h512zM841.143 850.286h-658.286v-804.571h146.286v731.429h512zM365.714 740.571v-804.571h402.765l255.521 255.521v549.051h-658.286zM731.429-27.429v256h256l-256-256z" />
<glyph unicode="&#xe95c;" glyph-name="config_entry_photo" d="M731.429 411.429c0-121.187-98.242-219.429-219.429-219.429s-219.429 98.242-219.429 219.429c0 121.187 98.242 219.429 219.429 219.429s219.429-98.242 219.429-219.429zM950.857 740.571h-146.286c0 80.791-65.494 146.286-146.286 146.286h-292.571c-80.791 0-146.286-65.494-146.286-146.286h-146.286c-40.395 0-73.143-32.747-73.143-73.143v-585.143c0-40.395 32.747-73.143 73.143-73.143h877.714c40.395 0 73.143 32.747 73.143 73.143v585.143c0 40.395-32.747 73.143-73.143 73.143zM512 82.286c-181.781 0-329.143 147.362-329.143 329.143s147.362 329.143 329.143 329.143c181.78 0 329.143-147.362 329.143-329.143s-147.363-329.143-329.143-329.143z" />
<glyph unicode="&#xe95d;" glyph-name="config_entry_summary" d="M109.714 960v-1024h549.051l255.52 255.521v768.479h-804.571zM438.857 777.143h365.714v-73.143h-365.714v73.143zM438.857 630.857h365.714v-73.143h-365.714v73.143zM438.857 374.857h365.714v-73.143h-365.714v73.143zM365.714 155.429h-146.286v219.429h146.286v-219.429zM365.714 557.714h-146.286v219.429h146.286v-219.429zM548.571 155.429h-109.714v73.143h109.714v-73.143zM621.714-27.189v255.521h255.52l-255.52-255.521z" />
<glyph unicode="&#xe95e;" glyph-name="config_entry_tag-relational" d="M658.286 960h-658.286v-804.571h146.286v731.429h512zM841.143 850.286h-658.286v-804.571h146.286v731.429h512zM365.714 740.571v-804.571h402.765l255.521 255.521v549.051h-658.286zM658.286 228.571l-219.429 219.429v182.857h182.857l292.571-292.571-36.571-36.571h-219.429v-73.143zM731.429-27.429v256h256l-256-256zM584.77 520.998c0-20.278-16.29-36.716-36.385-36.716s-36.385 16.438-36.385 36.716c0 20.278 16.29 36.716 36.385 36.716s36.385-16.438 36.385-36.716z" />
<glyph unicode="&#xe95f;" glyph-name="config_export" d="M877.714 374.857v-292.571h-731.429v292.571h-146.286v-365.714c0-40.395 32.746-73.143 73.143-73.143h877.714c40.395 0 73.143 32.747 73.143 73.143v365.714h-146.286zM361.714 155.429h296.571v512h146.286l-292.571 292.571-292.571-292.571h142.286z" />
<glyph unicode="&#xe960;" glyph-name="config_feed_ex-list" d="M658.286 960h-658.286v-804.571h146.286v731.429h512zM841.143 850.286h-658.286v-804.571h146.286v731.429h512zM365.714 740.571v-804.571h402.765l255.521 255.521v549.051h-658.286zM512.001 592.643c12.046 1.085 24.243 1.643 36.571 1.643 184.141 0 339.383-123.721 387.14-292.571h-76.728c-45.186 127.838-167.102 219.429-310.413 219.429-12.362 0-24.563-0.687-36.571-2.014v73.514zM548.571 82.286c-60.594 0-109.714 49.121-109.714 109.714s49.121 109.714 109.714 109.714 109.714-49.121 109.714-109.714-49.121-109.714-109.714-109.714zM548.571 374.857c-12.525 0-24.754-1.262-36.571-3.661v74.208c11.945 1.708 24.154 2.596 36.571 2.596 102.121 0 190.272-59.798 231.359-146.286h-85.066c-33.361 44.413-86.47 73.143-146.293 73.143zM731.429-27.429v256h256l-256-256z" />
<glyph unicode="&#xe961;" glyph-name="config_feed_rss2" d="M182.857 960c-37.185 0-73.805-2.417-109.714-7.095v-184.871c35.681 5.986 72.333 9.109 109.714 9.109 363.561 0 658.286-294.725 658.286-658.286 0-37.382-3.123-74.034-9.109-109.714h184.871c4.678 35.91 7.095 72.53 7.095 109.714 0 464.551-376.593 841.143-841.143 841.143zM365.714 118.857c0-100.989-81.868-182.857-182.857-182.857s-182.857 81.868-182.857 182.857c0 100.989 81.868 182.857 182.857 182.857s182.857-81.868 182.857-182.857zM182.857 630.857c-37.659 0-74.369-4.067-109.714-11.785v-189.803c34.317 12.129 71.244 18.731 109.714 18.731 181.781 0 329.143-147.362 329.143-329.143 0-38.47-6.602-75.398-18.731-109.714h189.803c7.717 35.345 11.785 72.055 11.785 109.714-0.001 282.77-229.231 512-512 512z" />
<glyph unicode="&#xe962;" glyph-name="config_field_value-list" d="M548.571 923.429c0 20.198-16.374 36.571-36.571 36.571-20.199 0-36.571-16.374-36.571-36.571v-109.714h-109.714v-109.714h109.714v-731.429c0-20.198 16.372-36.571 36.571-36.571 20.198 0 36.571 16.373 36.571 36.571v0 731.429h109.714v109.714h-109.714v109.714zM182.856 923.385c0 0.014 0.001 0.029 0.001 0.044 0 20.198-16.374 36.571-36.571 36.571-20.199 0-36.571-16.374-36.571-36.571h-0.001v-475.429h-109.714v-109.714h109.714v-365.715h0.001c0-20.198 16.372-36.571 36.571-36.571 20.198 0 36.571 16.374 36.571 36.571 0 0.015-0.001 0.030-0.001 0.044v365.67h109.714v109.714h-109.714v475.385zM1023.999 82.286v109.714h-109.715v731.385c0 0.014 0.001 0.029 0.001 0.044 0 20.198-16.374 36.571-36.571 36.571-20.199 0-36.571-16.374-36.571-36.571h-0.001v-731.429h-109.713v-109.714h109.713v-109.715h0.001c0-20.198 16.372-36.571 36.571-36.571 20.198 0 36.571 16.374 36.571 36.571 0 0.015-0.001 0.030-0.001 0.044v109.67h109.715z" />
<glyph unicode="&#xe963;" glyph-name="config_function" d="M784.885 594.286v0.076h-63.299l-63.3 109.638 63.299 109.638h63.299v0.076h214.474c-41.087 86.488-129.238 146.286-231.359 146.286-141.385 0-256-114.615-256-256 0-32.017 5.878-62.66 16.613-90.911l-528.613-528.613 1.433-1.449c-0.942-6.258-1.433-12.663-1.433-19.183 0-70.607 57.238-127.845 127.844-127.845 6.044 0 11.987 0.429 17.808 1.241l1.227-1.241 528.646 529.218c28.683-11.117 59.866-17.218 92.475-17.218 102.121 0 190.272 59.798 231.359 146.286h-214.474z" />
<glyph unicode="&#xe964;" glyph-name="config_import" d="M877.714 374.857v-292.571h-731.429v292.571h-146.286v-365.714c0-40.395 32.747-73.143 73.143-73.143h877.714c40.395 0 73.143 32.747 73.143 73.143v365.714h-146.286zM804.571 448h-146.286v512h-296.571v-512h-142.286l292.571-292.571z" />
<glyph unicode="&#xe965;" glyph-name="config_links" d="M882.062 662.905c0.029 0.030 0.059 0.058 0.089 0.087 42.846 42.846 42.846 112.313 0 155.158s-112.313 42.847-155.16 0.001h-0.001l-289.542-289.541c-19.543 73.201-0.623 154.535 56.803 211.961l155.159 155.159c85.691 85.692 224.626 85.692 310.319 0s85.692-224.627 0-310.319l-155.159-155.159c-57.427-57.427-138.762-76.347-211.965-56.802l289.455 289.455zM64.269 310.588l155.16 155.16c57.426 57.427 138.76 76.347 211.962 56.803l-289.542-289.543c-42.846-42.846-42.846-112.313 0-155.159s112.313-42.846 155.159 0l289.542 289.543c19.545-73.202 0.623-154.537-56.803-211.964l-155.16-155.159c-85.691-85.692-224.626-85.692-310.318 0-85.692 85.693-85.692 224.627-0.001 310.319zM606.566 646.006c13.237 13.236 31.522 21.423 51.72 21.423 40.395 0 73.143-32.747 73.143-73.143 0-20.198-8.187-38.483-21.423-51.72l-292.447-292.443c-13.246-13.311-31.582-21.551-51.844-21.551-40.396 0-73.143 32.747-73.143 73.143 0 20.572 8.496 39.157 22.167 52.447l-0.009 0.009 291.835 291.835z" />
<glyph unicode="&#xe966;" glyph-name="config_mail" d="M0 813.714v-144.571l512-294.286 512 292.571v146.286zM1024 152.571v514.857l-319.419-228.156zM512 301.714l-149.607 107.363-362.393-256.506v-70.286h1024v70.286l-362.041 256.257zM0 669.143v-516.571l319.818 287.059z" />
<glyph unicode="&#xe967;" glyph-name="config_navigation" d="M0 960h877.714v-146.286h-877.714v146.286zM658.286 704c60.594 0 109.714-49.121 109.714-109.714h109.714v146.286h-877.714v-146.286h548.571c0 60.594 49.121 109.714 109.714 109.714zM520.622 374.857h27.95v146.286h-548.571v-146.286h357.089c20.089 22.443 49.277 36.571 81.769 36.571 32.49 0 61.675-14.13 81.765-36.571zM768 521.143h109.714v-109.714h-109.714v109.714zM950.857 374.857h-219.429v219.429c0 40.395-32.747 73.143-73.143 73.143s-73.143-32.747-73.143-73.143v-335.417l-90.89 90.89-0.13-0.131c-13.411 15.455-33.197 25.229-55.265 25.229-40.395 0-73.143-32.747-73.143-73.143 0-22.069 9.774-41.854 25.229-55.265l-0.13-0.13 194.33-194.329v-115.99h365.714v73.143c40.395 0 73.143 32.747 73.143 73.143v219.429c0 40.395-32.747 73.143-73.143 73.143z" />
<glyph unicode="&#xe968;" glyph-name="config_output" d="M1024 484.571v0c-40.582 0-76.041-44.143-95.021-109.714h-112.478c-36.091 75.972-108.497 131.346-194.787 143.689v57.454l256-128 146.286 73.143v73.143l-221.51 110.755 221.51 117.245v64.571l-146.286 73.143-292.571-146.286-292.571 146.286-146.286-73.143v-73.143l219.429-109.714-219.429-109.714v-73.143l146.286-73.143 256 128v-57.454c-86.29-12.343-158.697-67.717-194.787-143.689h-134.355c-121.187 0-219.429-98.242-219.429-219.429v-219.429h219.429v146.286c0 40.395 32.747 73.143 73.143 73.143h61.213c41.087-86.488 129.238-146.286 231.359-146.286s190.272 59.798 231.359 146.286h112.478c18.98-65.572 54.439-109.714 95.020-109.714v0 438.857zM475.429 740.571c0 30.297 49.121 54.857 109.714 54.857s109.714-24.561 109.714-54.857-49.121-54.857-109.714-54.857-109.714 24.561-109.714 54.857z" />
<glyph unicode="&#xe969;" glyph-name="config_plugin_schedule" d="M315.086 301.714h-22.514v109.714h132.378l87.051 86.933v95.925h96.055l123.374 123.206v242.508h-731.429v-731.429h241.843l73.242 73.143zM512 777.143h146.286v-109.714h-146.286v109.714zM292.571 777.143h146.286v-109.714h-146.286v109.714zM292.571 594.286h146.286v-109.714h-146.286v109.714zM219.429 301.714h-146.286v109.714h146.286v-109.714zM219.429 484.571h-146.286v109.714h146.286v-109.714zM219.429 667.429h-146.286v109.714h146.286v-109.714zM731.429 228.571v95.428l-95.428-95.428zM147.23-64l218.484 73.143-146.286 146.286zM877.714 813.714l-621.714-621.714 146.286-146.286 621.714 621.714c0 80.791-65.494 146.286-146.286 146.286z" />
<glyph unicode="&#xe96a;" glyph-name="config_property" d="M877.714 308.994v-92.134c23.836-18.679 37.143-39.491 37.143-61.431 0-80.791-180.365-146.286-402.857-146.286s-402.857 65.494-402.857 146.286c0 21.941 13.307 42.753 37.143 61.431v92.134c-90.489-39.577-146.286-93.778-146.286-153.565 0-121.187 229.23-219.429 512-219.429s512 98.242 512 219.429c0 59.787-55.797 113.989-146.286 153.565zM182.857 118.857h658.286v402.286h109.714l-182.857 180.275v258.582h-109.714v-150.417l-152.571 150.417-432.571-438.857h109.714v-402.286zM621.714 484.571h146.286v-182.857h-146.286v182.857zM438.857 484.571h146.286v-182.857h-146.286v182.857zM256 484.571h146.286v-182.857h-146.286v182.857z" />
<glyph unicode="&#xe96b;" glyph-name="config_reset" d="M438.857 959.999h146.286v-219.427h-146.286v219.427zM438.857 155.428h146.286v-219.427h-146.286v219.427zM804.571 521.143h219.429v-146.286h-219.429v146.286zM0 521.143h219.429v-146.286h-219.429v146.286zM822.313 861.761l103.438-103.438-155.157-155.157-103.438 103.438 155.157 155.157zM201.676 34.237l-103.439 103.439 155.157 155.157 103.439-103.439-155.157-155.157zM822.318 34.232l-155.157 155.157 103.439 103.439 155.157-155.157-103.439-103.439zM253.399 603.157l-155.158 155.158 103.439 103.439 155.158-155.158-103.439-103.439z" />
<glyph unicode="&#xe96c;" glyph-name="config_shop_cart_list" d="M512 45.714c0-60.594-49.121-109.714-109.714-109.714s-109.714 49.121-109.714 109.714c0 60.594 49.121 109.714 109.714 109.714s109.714-49.121 109.714-109.714zM877.714 45.714c0-60.594-49.121-109.714-109.714-109.714s-109.714 49.121-109.714 109.714c0 60.594 49.121 109.714 109.714 109.714s109.714-49.121 109.714-109.714zM950.857 813.714h-713.143l-36.571 146.286h-201.143v-73.143h128l164.571-658.286h585.143l146.286 585.143h-73.143zM512 557.714v182.857h146.286v-182.857h-146.286zM658.286 484.571v-182.857h-146.286v182.857h146.286zM731.429 740.571h182.857l-45.714-182.857h-137.143v182.857zM256 740.571h182.857v-182.857h-137.143l-45.714 182.857zM320 484.571h118.857v-182.857h-73.143l-45.714 182.857zM731.429 301.714v182.857h118.857l-45.714-182.857h-73.143z" />
<glyph unicode="&#xe96d;" glyph-name="config_sitemap" d="M914.286 230.741v217.259h-371.808v78.672c106.637 14.026 188.953 105.262 188.953 215.727 0 120.178-97.424 217.601-217.602 217.601s-217.601-97.423-217.601-217.601c0-109.199 80.437-199.607 185.292-215.214v-79.185h-371.806v-218.141c-63.258-17.466-109.714-75.421-109.714-144.234 0-82.636 66.989-149.625 149.625-149.625 82.638 0 149.626 66.989 149.626 149.625 0 71.214-49.752 130.802-116.393 145.917v143.315h298.663v-142.717c-68.018-14.078-119.145-74.324-119.145-146.515 0-82.635 66.989-149.625 149.627-149.625 82.635 0 149.625 66.989 149.625 149.625 0 72.192-51.128 132.439-119.149 146.515v142.717h298.665v-144.116c-64.957-16.319-113.054-75.097-113.054-145.116 0-82.635 66.989-149.625 149.626-149.625s149.626 66.989 149.626 149.625c0 70.019-48.098 128.797-113.054 145.116z" />
<glyph unicode="&#xe96e;" glyph-name="config_tag_cloud" d="M512 960h-237.715c-30.297 0-54.857-24.56-54.857-54.857v-18.286h196.001l524.478-524.478 84.093 85.621-512 512zM164.571 850.286c-30.297 0-54.857-24.56-54.857-54.857v-18.286h196.001l524.478-524.478 84.093 85.621-512 512h-237.715zM54.857 740.571c-30.297 0-54.857-24.56-54.857-54.857v-232.489l517.225-517.225 287.347 292.571-512 512h-237.715zM164.571 521.143c-30.297 0-54.857 24.561-54.857 54.858s24.56 54.857 54.857 54.857 54.857-24.561 54.857-54.857c0-30.297-24.56-54.858-54.857-54.858z" />
<glyph unicode="&#xe96f;" glyph-name="config_tag_filter" d="M596.042 486.815c23.519 32.96 54.657 60.106 90.843 78.871l-284.599 284.599h-237.715c-30.297 0-54.857-24.56-54.857-54.857v-18.286h196.001l290.327-290.327zM721.711 580.575c25.989 8.886 53.86 13.711 82.859 13.711 31.322 0 61.328-5.63 89.067-15.925l-381.638 381.639h-237.715c-30.297 0-54.857-24.56-54.857-54.857v-18.286h196.001l306.282-306.282zM804.571 557.714c-121.187 0-219.429-98.241-219.429-219.429 0-32.198 6.935-62.775 19.393-90.322l-201.931-201.931c-0.001-0.158-0.006-0.315-0.006-0.473 0-0.053 0.002-0.105 0.002-0.158 0.086-60.382 49.017-109.314 109.399-109.398 0.001 0 0.003 0 0.004 0l202.247 202.247c27.546-12.458 58.124-19.393 90.322-19.393 121.187 0 219.429 98.242 219.429 219.429s-98.242 219.429-219.43 219.429zM804.571 228c-60.91 0-110.286 49.377-110.286 110.286s49.376 110.286 110.286 110.286c60.909 0 110.286-49.376 110.286-110.286s-49.377-110.286-110.286-110.286zM548.571 338.286c0 42.433 10.327 82.451 28.6 117.686l-284.599 284.599h-237.715c-30.297 0-54.857-24.56-54.857-54.857v-232.489l379.469-379.469 182.525 182.526c-8.701 25.744-13.423 53.322-13.423 82.004zM164.571 521.143c-30.297 0-54.857 24.561-54.857 54.858s24.56 54.857 54.857 54.857 54.857-24.561 54.857-54.857c0-30.297-24.56-54.858-54.857-54.858z" />
<glyph unicode="&#xe970;" glyph-name="config_theme" d="M768 886.857l-36.571 73.143h-438.857l-36.571-73.143h-256v-365.714h146.286v-585.143h731.429v585.143h146.286v365.714h-256zM512 484.571c-20.198 0-36.571 16.374-36.571 36.571s16.373 36.571 36.571 36.571 36.571-16.374 36.571-36.571c0-20.198-16.373-36.571-36.571-36.571zM512 630.857c-20.198 0-36.571 16.374-36.571 36.571s16.373 36.571 36.571 36.571 36.571-16.374 36.571-36.571-16.373-36.571-36.571-36.571zM621.714 667.429l-109.714 146.286-109.714-146.286-146.286 109.714 73.143 146.286 182.857-73.143 182.857 73.143 73.143-146.286-146.286-109.714z" />
<glyph unicode="&#xe971;" glyph-name="config_topicpath" d="M818.859 557.714l47.714-47.714 157.427 157.428h-95.427zM706 349.428l-62 62.001h-534.286l-109.714-109.714h658.286zM745.716 630.857l47.714-47.714 230.57 230.571h-95.427zM497.714 557.714h-388l-109.714-109.714h607.429zM402.286 653.142v50.858h270.287l47.714-47.714 303.713 303.714h-658.286l-365.714-365.714h461.143zM438.857 667.429l365.714-365.714-364.571-364.571h219.429l364.571 364.571-365.714 365.714z" />
<glyph unicode="&#xe972;" glyph-name="config_unit" d="M548.571 960v-475.429h475.429v475.429h-475.429zM950.857 557.714h-329.143v329.143h329.143v-329.143zM0 484.571h475.429v475.429h-475.429v-475.429zM73.143 886.857h329.143v-329.143h-329.143v329.143zM548.571-64h475.429v475.429h-475.429v-475.429zM621.714 338.286h329.143v-329.143h-329.143v329.143zM0-64h475.429v475.429h-475.429v-475.429zM73.143 338.286h329.143v-329.143h-329.143v329.143z" />
<glyph unicode="&#xe973;" glyph-name="config_user_profile" d="M982.716 154.655c-13.070 5.694-244.918 76.587-306.889 113.154-4.545 11.711-25.453 43.711-29.146 60.578 1.201 12.538-0.593 55.13 6.858 70.293 40.546 48.263 89.704 119.546 96.258 258.253 5.143 108.852-69.425 266.496-236.843 266.496-0.321 0-0.636-0.014-0.954-0.022-0.318 0.007-0.633 0.022-0.954 0.022-167.418 0-241.986-157.644-236.843-266.495 6.554-138.706 55.711-209.99 96.258-258.253 7.451-15.163 5.659-57.754 6.858-70.293-3.694-16.867-24.602-48.867-29.146-60.578-61.97-36.567-293.818-107.46-306.887-113.154s-35.216-21.979-41.284-38.264v-180.391h511.999c0 0 0 0.001 0 0.002 0.002-0.001 0.002-0.001 0.002-0.001h511.998v180.391c-6.069 16.285-28.213 32.569-41.284 38.263z" />
<glyph unicode="&#xe974;" glyph-name="config_user_search" d="M804.571 557.714c-121.187 0-219.429-98.241-219.429-219.429 0-32.198 6.934-62.776 19.393-90.322l-201.932-201.931c-0.001-0.158-0.006-0.315-0.006-0.473 0-0.053 0.002-0.105 0.002-0.158 0.085-60.382 49.016-109.314 109.398-109.399h0.005l202.247 202.247c27.546-12.457 58.124-19.393 90.322-19.393 121.187 0 219.429 98.242 219.429 219.429s-98.241 219.429-219.428 219.429zM804.571 228c-60.91 0-110.286 49.377-110.286 110.286s49.376 110.286 110.286 110.286c60.909 0 110.286-49.376 110.286-110.286s-49.377-110.286-110.286-110.286zM417.186 155.429c0.001-0.001 0.001-0.001 0.001-0.001h43.956l100.851 100.853c-8.701 25.745-13.423 53.323-13.423 82.005 0 28.509 4.662 55.927 13.263 81.539-4.22 2.087-7.967 4.083-11.159 5.966-3.703 9.543-20.739 35.617-23.749 49.36 0.98 10.217-0.483 44.921 5.589 57.276 33.038 39.326 73.092 97.408 78.432 210.427 4.191 88.695-56.568 217.146-192.983 217.146-0.261 0-0.518-0.012-0.777-0.018-0.259 0.006-0.516 0.018-0.777 0.018-136.414 0-197.174-128.451-192.983-217.145 5.34-113.019 45.394-171.102 78.434-210.427 6.071-12.355 4.61-47.059 5.587-57.276-3.010-13.743-20.046-39.817-23.749-49.36-50.494-29.795-239.407-87.56-250.056-92.199-10.65-4.641-28.695-17.909-33.639-31.178v-146.985h417.184c0.001 0 0.001 0 0.001 0.001z" />
<glyph unicode="&#xe975;" glyph-name="arrow-down" d="M512 960c-282.77 0-512-229.23-512-512s229.23-512.001 512-512.001 512.001 229.23 512.001 512.001-229.23 512-512.001 512zM512 155.429l-365.714 365.714 146.285 146.286 219.429-219.429 219.429 219.429 146.286-146.286-365.715-365.714z" />
<glyph unicode="&#xe976;" glyph-name="arrow-left" d="M512 960c-282.77 0-512-229.23-512-512s229.23-512 512-512c282.77 0 512.001 229.23 512.001 512s-229.23 512-512.001 512zM731.429 228.571l-146.286-146.286-365.714 365.714 365.714 365.715 146.286-146.286-219.429-219.429 219.429-219.429z" />
<glyph unicode="&#xe977;" glyph-name="arrow-right" d="M512 960c-282.77 0-512-229.23-512-512s229.23-512 512-512 512.001 229.23 512.001 512-229.231 512-512.001 512zM438.857 82.286l-146.286 146.286 219.429 219.429-219.429 219.429 146.286 146.286 365.714-365.714-365.714-365.714z" />
<glyph unicode="&#xe978;" glyph-name="arrow-small-down" d="M877.715 521.143l-146.286 146.286-219.43-219.429-219.429 219.429-146.285-146.286 365.713-365.714z" />
<glyph unicode="&#xe979;" glyph-name="arrow-small-left" d="M585.144 813.714l146.286-146.286-219.429-219.429 219.429-219.429-146.286-146.286-365.714 365.714z" />
<glyph unicode="&#xe97a;" glyph-name="arrow-small-right" d="M438.857 813.714l-146.286-146.286 219.429-219.429-219.429-219.429 146.286-146.286 365.714 365.714z" />
<glyph unicode="&#xe97b;" glyph-name="arrow-small-up" d="M146.286 374.857l146.286-146.286 219.429 219.429 219.429-219.429 146.285 146.286-365.714 365.715z" />
<glyph unicode="&#xe97c;" glyph-name="arrow-up" d="M512 960c-282.77 0-512-229.23-512-512s229.23-512 512-512 512 229.23 512 512-229.23 512-512 512zM731.429 228.571l-219.429 219.429-219.429-219.429-146.286 146.286 365.714 365.715 365.714-365.715-146.285-146.286z" />
<glyph unicode="&#xe97d;" glyph-name="bike" d="M859.758 441l17.956 116.714h-536.037l69.907 256h136.987v73.143h-182.857l-120.259-440.389c-8.535 1.009-17.22 1.531-26.027 1.531-121.187 0-219.429-98.242-219.429-219.429s98.242-219.429 219.429-219.429 219.429 98.241 219.429 219.429c0 90.142-54.356 167.586-132.077 201.35l9.777 35.804 269.997-212.14c-0.931-8.209-1.411-16.556-1.411-25.014 0-121.187 98.242-219.429 219.429-219.429s219.429 98.241 219.429 219.429c0 102.126-69.769 187.955-164.242 212.429zM365.714 228.571c0-80.791-65.494-146.286-146.286-146.286s-146.286 65.494-146.286 146.286 65.494 146.286 146.286 146.286c2.155 0 4.298-0.057 6.431-0.149l-33.053-121.038 51.72-51.72 42.677 156.282c46.665-24.443 78.511-73.329 78.511-129.661zM605.843 321.726l-203.557 162.846h402.286l-4.578-36.623c-85.93-1.759-159.726-52.911-194.151-126.223zM804.571 82.286c-80.791 0-146.286 65.494-146.286 146.286s65.494 146.286 146.286 146.286c80.791 0 146.286-65.494 146.286-146.286s-65.494-146.286-146.286-146.286z" />
<glyph unicode="&#xe97e;" glyph-name="book" d="M219.429 9.143c-40.395 0-73.143 32.747-73.143 73.143s32.747 73.143 73.143 73.143h731.429v804.571l-731.429-0.003c-80.502-0.155-145.714-65.587-145.714-146.282v-731.429c0-80.663 48.839-146.074 109.143-146.281v-0.005h768v73.143h-731.429z" />
<glyph unicode="&#xe97f;" glyph-name="book2" d="M0 777.027v-731.429c47.394 43.789 136.101 73.259 237.714 73.259s190.32-29.47 237.714-73.259v731.429c-47.394 43.789-136.101 73.259-237.714 73.259s-190.32-29.47-237.714-73.259zM786.286 850.286c-101.613 0-190.32-29.47-237.714-73.259v-725.811c47.394 47.157 136.101 78.894 237.715 78.894 101.612 0 190.318-31.737 237.713-78.894v725.811c-47.394 43.789-136.101 73.259-237.714 73.259z" />
<glyph unicode="&#xe980;" glyph-name="bus" d="M365.135 155.139c0-60.434-48.991-109.425-109.425-109.425s-109.425 48.991-109.425 109.425c0 60.434 48.991 109.425 109.425 109.425s109.425-48.991 109.425-109.425zM877.714 155.139c0-60.434-48.991-109.425-109.425-109.425s-109.425 48.991-109.425 109.425c0 60.434 48.991 109.425 109.425 109.425s109.425-48.991 109.425-109.425zM1024.001 776.563c0 40.395-32.747 73.143-73.143 73.143-0.030 0-0.059-0.001-0.089-0.001l-877.626 0.001c0 0-0.001 0-0.001 0-40.395 0-73.143-32.747-73.143-73.143 0-0.194 0.006-0.386 0.007-0.58h-0.006v-585.143h76.642c16.602 83.735 90.457 146.866 179.067 146.866s162.466-63.131 179.067-146.866h154.445c16.602 83.735 90.457 146.866 179.067 146.866s162.465-63.131 179.068-146.866h76.642v585.142h-0.007c0.002 0.194 0.007 0.387 0.007 0.581zM292.572 410.849h-219.429v293.151c0 37.266 27.869 68.020 63.901 72.563h155.529v-365.714zM512 557.135h-146.286v219.429h146.286v-219.429zM731.429 557.135h-146.286v219.429h146.286v-219.429zM950.857 557.135h-146.286v219.429h82.385c36.033-4.543 63.901-35.298 63.901-72.563v-146.865z" />
<glyph unicode="&#xe981;" glyph-name="business" d="M804.571 886.857l-77.143 73.143h-436.571l-71.429-73.143-219.429-73.143v-804.571c0-40.395 32.747-73.143 73.143-73.143h877.714c40.395 0 73.143 32.747 73.143 73.143v804.571l-219.429 73.143zM512 9.143l-256 804.571 73.143 73.143h365.714l73.143-73.143-256-804.571zM402.286 813.714l73.143-146.286-36.571-219.429 73.143-256 73.143 256-36.571 219.429 73.143 146.286z" />
<glyph unicode="&#xe982;" glyph-name="car" d="M365.134 155.139c0-60.434-48.991-109.425-109.425-109.425s-109.425 48.991-109.425 109.425c0 60.434 48.991 109.425 109.425 109.425s109.425-48.991 109.425-109.425zM877.714 155.139c0-60.434-48.991-109.425-109.425-109.425s-109.425 48.991-109.425 109.425c0 60.434 48.991 109.425 109.425 109.425s109.425-48.991 109.425-109.425zM1024 301.714c0 90.953-36.892 173.288-96.527 232.861-55.61 141.391-204.256 242.567-378.902 242.567-179.518 0-331.566-106.9-383.338-254.495-98.746-50.848-165.234-146.227-165.234-255.505 0-0.43 0.005-0.86 0.009-1.289-0.002-0.237-0.009-0.473-0.009-0.711 0-40.395 32.747-73.143 73.143-73.143h3.724c17.050 83.159 90.641 145.706 178.843 145.706s161.794-62.547 178.843-145.706h154.892c17.050 83.159 90.642 145.706 178.844 145.706s161.794-62.547 178.844-145.706h3.723c40.395 0 73.143 32.747 73.143 73.143 0 3.986-0.323 7.894-0.937 11.707 0.615 8.209 0.937 16.498 0.937 24.865zM229.798 484.571c36.538 126.188 165.406 219.429 318.773 219.429 12.362 0 24.563-0.609 36.571-1.789v-217.639h-355.345zM658.286 484.571v202.779c102.492-32.201 181.686-108.243 209.059-202.779h-209.059z" />
<glyph unicode="&#xe983;" glyph-name="children" d="M73.143 301.714c0-20.198-16.374-36.571-36.571-36.571s-36.571 16.374-36.571 36.571c0 20.198 16.374 36.571 36.571 36.571s36.571-16.374 36.571-36.571zM498.935 329.721l-169.792 154.85h-146.286l-172.145-156.997 51.72-51.72 107.554 92.878-23.701-213.304v-182.857c0-20.198 16.374-36.571 36.571-36.571s36.571 16.373 36.571 36.571v182.857h73.143v-182.857c0-20.198 16.374-36.571 36.571-36.571s36.571 16.373 36.571 36.571v182.857l-23.701 213.304 107.554-92.878c14.282-14.282 37.438-14.282 51.72 0 7.142 7.141 10.712 16.501 10.712 25.86s-3.57 18.719-10.712 25.86c-0.758 0.759-1.547 1.468-2.353 2.147zM365.714 630.857c0-60.594-49.121-109.714-109.714-109.714s-109.714 49.121-109.714 109.714c0 60.594 49.121 109.714 109.714 109.714s109.714-49.121 109.714-109.714zM1013.288 327.574c-0.759 0.759-1.547 1.468-2.354 2.147l-169.791 154.85h-146.286l-169.792-154.85c-0.806-0.679-1.595-1.388-2.354-2.147-7.141-7.141-10.711-16.501-10.711-25.86s3.57-18.719 10.712-25.86c14.282-14.282 37.438-14.282 51.72 0l107.554 92.878-23.701-213.304v-182.857c0-20.198 16.374-36.571 36.571-36.571s36.571 16.373 36.571 36.571v182.857h73.143v-182.857c0-20.198 16.374-36.571 36.571-36.571s36.571 16.373 36.571 36.571v182.857l-23.701 213.304 107.554-92.878c14.282-14.282 37.438-14.282 51.72 0s14.283 37.438 0 51.72zM877.714 630.857c0-60.594-49.121-109.714-109.714-109.714s-109.714 49.121-109.714 109.714c0 60.594 49.121 109.714 109.714 109.714s109.714-49.121 109.714-109.714z" />
<glyph unicode="&#xe984;" glyph-name="company" d="M512 886.857v73.143h-292.571v-73.143h-73.143v-950.857h146.286v146.286h146.286v-146.286h438.857v950.857h-365.714zM804.571 155.429h-585.143v73.143h585.143v-73.143zM804.571 338.286h-585.143v73.143h585.143v-73.143zM804.571 521.143h-585.143v73.143h585.143v-73.143zM804.571 704h-585.143v73.143h585.143v-73.143z" />
<glyph unicode="&#xe985;" glyph-name="cup" d="M955.31 338.422c-33.1-20.725-72.234-32.707-114.167-32.707-22.747 0-44.668 3.529-65.251 10.063-24.739-28.355-53.218-52.731-84.565-72.17-16.681-50.281-90.623-88.179-179.326-88.179s-162.646 37.898-179.326 88.179c-59.106 36.651-108.017 90.859-140.883 156.191-116.929-40.215-191.79-101.974-191.79-171.227 0-121.187 229.23-219.429 512-219.429s512 98.241 512 219.429c0 40.025-25.010 77.545-68.69 109.85zM365.75 266.566c-0.018-0.474-0.036-0.947-0.036-1.423 0-40.395 65.494-73.143 146.286-73.143s146.286 32.747 146.286 73.143c0 0.476-0.018 0.95-0.035 1.423 39.795 21.967 75.016 52.623 103.665 89.729 23.97-11.542 50.844-18.010 79.229-18.010 100.989 0 182.857 81.868 182.857 182.857s-81.868 182.857-182.857 182.857c0 100.989-147.362 182.857-329.143 182.857s-329.143-81.869-329.143-182.857v-109.714c-0.001-143.608 74.496-267.883 182.893-327.719zM841.143 630.857c60.593 0 109.714-49.121 109.714-109.714s-49.121-109.714-109.714-109.714c-14.187 0-27.746 2.693-40.192 7.596 25.622 52.041 40.192 111.759 40.192 175.261v36.571zM220.354 619.163c-0.61 3.858-0.926 7.758-0.926 11.694 0 80.791 130.989 146.286 292.571 146.286s292.571-65.494 292.571-146.286c0-3.937-0.315-7.836-0.926-11.694-55.032-58.27-164.982-98.020-291.646-98.020s-236.614 39.75-291.646 98.020z" />
<glyph unicode="&#xe986;" glyph-name="custom-field" d="M605.149 604.253c-12.602 17.862-20.008 39.653-20.008 63.175 0 60.594 49.12 109.714 109.714 109.714 60.593 0 109.714-49.12 109.714-109.714 0-32.251-13.917-61.251-36.073-81.325l124.143-13.794c5.655 11.738 10.302 24.053 13.815 36.838l75.791 3.195c3.399 17.841 5.181 36.255 5.181 55.086s-1.781 37.246-5.181 55.087l-75.791 3.195c-4.865 17.702-11.89 34.507-20.777 50.117l51.326 55.845c-20.813 30.625-47.281 57.093-77.906 77.905l-55.845-51.326c-15.609 8.886-32.415 15.913-50.116 20.777l-3.195 75.791c-17.842 3.399-36.257 5.18-55.087 5.18s-37.246-1.781-55.087-5.179l-3.195-75.791c-17.702-4.865-34.507-11.89-50.117-20.777l-55.845 51.326c-30.625-20.813-57.093-47.281-77.906-77.906l51.326-55.845c-8.887-15.61-15.913-32.416-20.777-50.118l-75.79-3.195c-3.399-17.841-5.178-36.255-5.178-55.087 0-13.898 0.972-27.57 2.847-40.951l200.017-22.224zM36.571 594.286l877.714-402.286 109.714 292.571zM0 559.962l438.857-623.962 438.857 219.429zM877.714-64l36.571 182.857-219.429-109.714z" />
<glyph unicode="&#xe987;" glyph-name="domain" d="M877.714 667.429c0-40.396-32.747-73.143-73.143-73.143s-73.143 32.747-73.143 73.143c0 40.396 32.747 73.143 73.143 73.143s73.143-32.747 73.143-73.143zM292.571 740.571v-146.286h385.29c-12.447 21.517-19.575 46.497-19.575 73.143s7.128 51.626 19.575 73.143h-385.29zM0 886.286v-877.143h1024v877.143h-1024zM804.571 521.143h-585.143c-80.792 0-146.286 65.494-146.286 146.286s65.494 146.286 146.286 146.286h585.143c80.791 0 146.286-65.494 146.286-146.286s-65.494-146.286-146.286-146.286z" />
</font>
</defs>
</svg>
