<svg xmlns="http://www.w3.org/2000/svg" viewBox="0 0 1792 1792"><defs><style>.cls-1{fill:#4779bc;}.cls-2{fill:#369f52;}.cls-3{fill:#efb51a;}.cls-4{fill:#dc4435;}.cls-5{fill:none;}</style></defs><title>Google ログイン</title><g id="logo_googleg_48dp" data-name="logo googleg 48dp"><path id="Shape" class="cls-1" d="M1756.16,916.36a1029.53,1029.53,0,0,0-16.29-183.27H896v346.59h482.21c-20.77,112-83.9,206.89-178.79,270.43v224.81H1489c169.43-156,267.17-385.69,267.17-658.56h0Z"/><path id="Shape-2" data-name="Shape" class="cls-2" d="M896,1792c241.92,0,444.74-80.23,593-217.08l-289.57-224.81c-80.23,53.76-182.87,85.53-303.42,85.53-233.37,0-430.89-157.61-501.35-369.4H95.3v232.15C242.73,1591.21,545.75,1792,896,1792h0Z"/><path id="Shape-3" data-name="Shape" class="cls-3" d="M394.65,1066.24a529.71,529.71,0,0,1,0-340.48V493.61H95.3a897.13,897.13,0,0,0,0,804.77l299.35-232.15h0Z"/><path id="Shape-4" data-name="Shape" class="cls-4" d="M896,356.36c131.55,0,249.66,45.21,342.52,134l257-257C1340.33,88.79,1137.51,0,896,0,545.75,0,242.73,200.79,95.3,493.61L394.65,725.76C465.11,514,662.63,356.36,896,356.36h0Z"/><path id="Shape-5" data-name="Shape" class="cls-5" d="M0,0H1792V1792H0V0Z"/></g></svg>
